<svg width="477" height="118" viewBox="0 0 477 118" preserveAspectRatio="none"  fill="none" xmlns="http://www.w3.org/2000/svg">
<path d="M90.8172 1C96.1723 6.75476 102.652 8.11527 120 7.56716V10.8507C101.115 10.6654 96.3959 13.8124 90.8172 21C85.2385 13.8124 79.8854 10.6654 61 10.8507V7.56716C78.3484 8.11527 85.4621 6.75476 90.8172 1Z" fill="currentcolor" stroke="currentcolor"/>
<path fill-rule="evenodd" clip-rule="evenodd" d="M56 20.5H77V21.4747C70.2781 21.3647 68.5986 23.2329 66.6129 27.5C64.6273 23.2329 62.7219 21.3647 56 21.4747V20.5Z" fill="currentcolor" stroke="currentcolor"/>
<path fill-rule="evenodd" clip-rule="evenodd" d="M16 45.5V66.5H16.9747C16.8647 59.7781 18.7329 58.0986 23 56.1129C18.7329 54.1273 16.8647 52.2219 16.9747 45.5H16Z" fill="currentcolor" stroke="currentcolor"/>
<path fill-rule="evenodd" clip-rule="evenodd" d="M56 97H77V96.0253C70.2781 96.1353 68.5986 94.2671 66.6129 90C64.6273 94.2671 62.7219 96.1353 56 96.0253V97Z" fill="currentcolor" stroke="currentcolor"/>
<path d="M90.8172 97C96.1723 102.755 102.652 104.115 120 103.567V106.851C101.115 106.665 96.3959 109.812 90.8172 117C85.2385 109.812 79.8854 106.665 61 106.851V103.567C78.3484 104.115 85.4621 102.755 90.8172 97Z" fill="currentcolor" stroke="currentcolor"/>
<path opacity="0.87" d="M81.5 98H66H56.375C32.9719 98 14 79.0281 14 55.625V55.625V55.625C14 35.9499 29.9499 20 49.625 20H66H81.5" stroke="currentcolor" stroke-width="5"/>
<path d="M386.183 1C380.828 6.75476 374.348 8.11527 357 7.56716V10.8507C375.885 10.6654 380.604 13.8124 386.183 21C391.762 13.8124 397.115 10.6654 416 10.8507V7.56716C398.652 8.11527 391.538 6.75476 386.183 1Z" fill="currentcolor" stroke="currentcolor"/>
<path fill-rule="evenodd" clip-rule="evenodd" d="M421 20.5H400V21.4747C406.722 21.3647 408.401 23.2329 410.387 27.5C412.373 23.2329 414.278 21.3647 421 21.4747V20.5Z" fill="currentcolor" stroke="currentcolor"/>
<path fill-rule="evenodd" clip-rule="evenodd" d="M461 45.5V66.5H460.025C460.135 59.7781 458.267 58.0986 454 56.1129C458.267 54.1273 460.135 52.2219 460.025 45.5H461Z" fill="currentcolor" stroke="currentcolor"/>
<path fill-rule="evenodd" clip-rule="evenodd" d="M421 97H400V96.0253C406.722 96.1353 408.401 94.2671 410.387 90C412.373 94.2671 414.278 96.1353 421 96.0253V97Z" fill="currentcolor" stroke="currentcolor"/>
<path d="M386.183 97C380.828 102.755 374.348 104.115 357 103.567V106.851C375.885 106.665 380.604 109.812 386.183 117C391.762 109.812 397.115 106.665 416 106.851V103.567C398.652 104.115 391.538 102.755 386.183 97Z" fill="currentcolor" stroke="currentcolor"/>
<path opacity="0.87" d="M395.5 98H411H420.625C444.028 98 463 79.0281 463 55.625V55.625V55.625C463 35.9499 447.05 20 427.375 20H411H395.5" stroke="currentcolor" stroke-width="5"/>
<path d="M223 11.5H254H429.5C453.248 11.5 472.5 30.7518 472.5 54.5C472.5 83.2188 449.219 106.5 420.5 106.5H254H223H56.5C27.7812 106.5 4.5 83.2188 4.5 54.5C4.5 30.7518 23.7518 11.5 47.5 11.5H223Z" stroke="currentcolor" stroke-width="9"/>
</svg>
