<svg width="391" height="390" viewBox="0 0 391 390" fill="none" xmlns="http://www.w3.org/2000/svg" >
<path d="M40.5 232.5V1H31.5V358.5H390V349.5H158.5C149.763 348.291 145.828 344.512 139.5 335.5C131.031 345.533 125.578 349.255 113.5 349.5H40.5V277.5C40.7453 265.422 44.4667 259.969 54.5 251.5C45.4879 245.172 41.709 241.237 40.5 232.5Z" fill="currentcolor"/>
<path d="M48 331C50.1773 334.68 50.2739 335.872 48 342C54.1281 339.726 56.3197 339.823 60 342C59.3112 340.061 59.252 338.663 60 335.5C70.1145 332.003 71.8077 334.462 72 342C104.667 345.827 114.524 340.634 123 323.5C114.882 329.18 110.361 331.809 102.5 333C107.097 329.422 109.023 327.518 110 324.5C94.0052 329.431 87.6199 328.569 76.5128 327.069L76 327L120.973 269.588L63 315L62.9308 314.487C61.4311 303.38 60.5689 296.995 65.5 281C62.4823 281.977 60.5777 283.903 57 288.5C58.1911 280.639 60.8195 276.118 66.5 268C49.366 276.476 44.1727 286.333 48 319C55.5383 319.192 57.997 320.885 54.5 331C51.3372 331.748 49.9385 331.689 48 331Z" fill="currentcolor"/>
<path d="M25.5 364.5V31C23.2456 49.8777 22.7474 62.9207 16.5 69V237C22.1114 248.819 22.9293 255.563 16.5 268C12.6616 274.468 9.18415 278.086 1 284.5C9.899 289.738 14.6931 292.744 16.5 300.5V348.5C14.5493 361.922 10.0611 364.32 1 367C8.32088 367.95 13.5 364.5 19 371C24.5 377.5 25.6981 382.915 24 389C26.6804 379.939 29.0783 375.451 42.5 373.5H90.5C98.2555 375.307 101.262 380.101 106.5 389C112.914 380.816 116.532 377.338 123 373.5C135.437 367.071 142.181 367.889 154 373.5H322C328.079 367.253 341.122 366.754 360 364.5H25.5Z" fill="currentcolor"/>
<path d="M123 268L63 315L62.9308 314.487C61.4311 303.38 60.5689 296.995 65.5 281C62.4823 281.977 60.5777 283.903 57 288.5C58.1911 280.639 60.8195 276.118 66.5 268C49.366 276.476 44.1727 286.333 48 319C55.5383 319.192 57.997 320.885 54.5 331C51.3372 331.748 49.9385 331.689 48 331C50.1773 334.68 50.2739 335.872 48 342C54.1281 339.726 56.3197 339.823 60 342C59.3112 340.061 59.252 338.663 60 335.5C70.1145 332.003 71.8077 334.462 72 342C104.667 345.827 114.524 340.634 123 323.5C114.882 329.18 110.361 331.809 102.5 333C107.097 329.422 109.023 327.518 110 324.5C94.0052 329.431 87.6199 328.569 76.5128 327.069L76 327L123 267M40.5 1V232.5C41.709 241.237 45.4879 245.172 54.5 251.5C44.4667 259.969 40.7453 265.422 40.5 277.5V349.5H113.5C125.578 349.255 131.031 345.533 139.5 335.5C145.828 344.512 149.763 348.291 158.5 349.5H390V358.5H31.5V1H40.5ZM25.5 31V364.5H360C341.122 366.754 328.079 367.253 322 373.5H154C142.181 367.889 135.437 367.071 123 373.5C116.532 377.338 112.914 380.816 106.5 389C101.262 380.101 98.2555 375.307 90.5 373.5H42.5C29.0783 375.451 26.6804 379.939 24 389C25.6981 382.915 24.5 377.5 19 371C13.5 364.5 8.32088 367.95 1 367C10.0611 364.32 14.5493 361.922 16.5 348.5V300.5C14.6931 292.744 9.899 289.738 1 284.5C9.18415 278.086 12.6616 274.468 16.5 268C22.9293 255.563 22.1114 248.819 16.5 237V69C22.7474 62.9207 23.2456 49.8777 25.5 31Z" stroke="currentcolor"/>
</svg>
