<svg width="558" height="132" viewBox="0 0 558 132" fill="none" xmlns="http://www.w3.org/2000/svg" preserveAspectRatio="none" >
<path d="M467.183 6C461.828 11.7548 455.348 13.1153 438 12.5672V15.8507C456.885 15.6654 461.604 18.8124 467.183 26C472.762 18.8124 478.115 15.6654 497 15.8507V12.5672C479.652 13.1153 472.538 11.7548 467.183 6Z" fill="black" stroke="black"/>
<path fill-rule="evenodd" clip-rule="evenodd" d="M502 25.5H481V26.4747C487.722 26.3647 489.401 28.2329 491.387 32.5C493.373 28.2329 495.278 26.3647 502 26.4747V25.5Z" fill="black" stroke="black"/>
<path fill-rule="evenodd" clip-rule="evenodd" d="M542 50.5V71.5H541.025C541.135 64.7781 539.267 63.0986 535 61.1129C539.267 59.1273 541.135 57.2219 541.025 50.5H542Z" fill="black" stroke="black"/>
<path fill-rule="evenodd" clip-rule="evenodd" d="M502 102H481V101.025C487.722 101.135 489.401 99.2671 491.387 95C493.373 99.2671 495.278 101.135 502 101.025V102Z" fill="black" stroke="black"/>
<path d="M467.183 102C461.828 107.755 455.348 109.115 438 108.567V111.851C456.885 111.665 461.604 114.812 467.183 122C472.762 114.812 478.115 111.665 497 111.851V108.567C479.652 109.115 472.538 107.755 467.183 102Z" fill="black" stroke="black"/>
<path d="M264 97C259.779 106.639 254.673 108.918 241 108V113.5C255.884 113.19 259.603 118.461 264 130.5C268.397 118.461 272.616 113.19 287.5 113.5V108C273.827 108.918 268.221 106.639 264 97Z" fill="black" stroke="black"/>
<path d="M265 2C260.779 11.6392 255.673 13.9181 242 13V18.5C256.884 18.1896 260.603 23.4608 265 35.5C269.397 23.4608 273.616 18.1896 288.5 18.5V13C274.827 13.9181 269.221 11.6392 265 2Z" fill="black" stroke="black"/>
<path d="M25 16.5H510.5C534.248 16.5 553.5 35.7518 553.5 59.5C553.5 88.2188 530.219 111.5 501.5 111.5H25C13.6782 111.5 4.5 102.322 4.5 91V37C4.5 25.6782 13.6782 16.5 25 16.5Z" stroke="black" stroke-width="9"/>
<path opacity="0.87" d="M476.5 103H492H501.625C525.028 103 544 84.0281 544 60.625V60.625V60.625C544 40.9499 528.05 25 508.375 25H492H476.5" stroke="black" stroke-width="5"/>
</svg>
