<svg width="874" height="618" viewBox="0 0 874 618" fill="none" xmlns="http://www.w3.org/2000/svg" preserveAspectRatio="none">
<path d="M445.086 608.5L437.008 616.577L429.124 608.5H445.086ZM634.828 598L622.685 606.5H610.347L623.299 598H634.828ZM619.653 598L606.701 606.5H449.996L458.901 598H619.653ZM456.004 598L447.099 606.5H427.201L419.713 598H456.004ZM417.049 598L424.537 606.5H267.401L258.496 598H417.049ZM255.599 598L264.504 606.5H254.477L247.596 598H255.599ZM619.586 11.5L628.086 20H620.414L611.914 11.5H619.586ZM609.086 11.5L617.586 20H455.414L446.914 11.5H609.086ZM444.086 11.5L452.586 20H415.874L424.171 11.5H444.086ZM421.376 11.5L413.079 20H253.83L264.354 11.5H421.376ZM261.17 11.5L250.646 20H240.83L251.354 11.5H261.17ZM442.086 9.5H426.124L434.008 1.42188L442.086 9.5ZM24 330.61L23.7363 330.323L1.37793 306.021L23.7148 283.199L24 282.908V22H844V282.972L844.364 283.271L871.956 306.022L844.341 330.248L844 330.547V596H24V330.61Z" stroke="#C8A45F" stroke-width="2"/>
</svg>
