<svg width="838" height="853" viewBox="0 0 838 853" fill="currentcolor" xmlns="http://www.w3.org/2000/svg">
<path d="M136.333 128.867C161 140.333 161.933 174.733 137.8 187.267C131.666 190.467 118.2 191.4 113.8 188.733C111.8 187.667 113.4 187.533 120.466 187.933C128.066 188.6 130.733 188.2 135.133 185.933C151 177.667 157.533 159.667 149.8 144.6C143 131.267 129.266 124.867 116.333 128.867C114.866 129.267 115.533 128.867 117.666 127.8C123.4 125 128.733 125.267 136.333 128.867Z" fill="currentcolor"/>
<path d="M127.133 159.667C126.333 161.933 122.333 160.867 122.333 158.467C122.333 157.533 123 156.2 123.933 155.267C125.133 154.067 125.8 154.067 126.733 155.8C127.4 156.867 127.533 158.733 127.133 159.667Z" fill="currentcolor"/>
<path d="M434.333 27.9333C434.333 32.6 434.733 36.3333 435.266 36.3333C435.8 36.3333 439.666 32.8667 443.933 28.7333C453.8 19 454.066 21.1333 444.333 31.5333C443.232 32.7443 442.182 33.8946 441.238 34.9288C438.751 37.6523 437 39.57 437 39.6667C437 39.9333 437.8 39.9333 438.733 39.9333C439.533 39.8 444.866 40.3333 450.333 41L460.333 42.2L454.333 43.2667C451 43.9333 445.666 44.0667 442.466 43.5333L436.6 42.7333L442.333 49.6667C445.4 53.4 447.8 56.7333 447.533 57C446.733 57.6667 437.533 49 435.8 46.0667C434.733 44.0667 434.333 44.7333 434.333 49.6667C434.2 53 433.666 58.0667 433.133 61L432.066 66.3333L431.133 60.0667C430.466 56.6 430.333 51.6667 430.6 49.1333L431.133 44.6L423.133 50.7333C415.133 56.8667 415.133 56.8667 418.6 52.3333C420.6 49.8 423.4 46.7333 424.866 45.6667C428.333 43.2667 428.466 41.4 425.4 41.8C424.067 41.9333 418.867 41.8 413.668 41.6667L413.666 41.6667L404.333 41.4L411 39.8C414.733 38.8667 419.666 38.3333 422.066 38.7333C424.333 39 426.333 38.8667 426.333 38.3333C426.333 37.8 424.333 34.8667 422.066 31.8C417.8 26.3333 420.2 27.4 425.933 33.5333C427.666 35.2667 429.4 36.4667 429.8 36.0667C430.2 35.6667 430.866 31 431.266 25.8C432.2 14.2 434.333 15.8 434.333 27.9333Z" fill="currentcolor"/>
<path d="M414.466 5.79999C399.933 15.4 393.533 27.2667 394.6 42.7333C395 47.6667 396.333 54.2 397.8 57C401.4 64.8667 411.4 74.0667 419.133 76.6C422.866 77.8 424.466 78.8667 422.866 78.8667C418.2 79.1333 408.6 74.2 403.4 68.7333C393.533 58.6 389.666 42.7333 393.533 29.2667C396.333 19.6667 404.866 9.13333 413.666 4.2C423.666 -1.26667 424.066 -0.466679 414.466 5.79999Z" fill="currentcolor"/>
<path d="M729 135C729 135.667 731.133 138.733 733.933 141.667C737.266 145.533 739.133 146.733 740.2 145.667C741.933 143.933 745.4 143.933 744.733 145.8C744.466 146.6 743.8 147.133 743.133 147C742.6 146.867 741.4 147.8 740.466 149C739 151 738.066 150.333 731.533 143.133L724.2 134.867L718.866 139.267C716.066 141.667 712.2 144.467 710.466 145.533L707.266 147.267L710.2 143.533C711.8 141.4 715 138.333 717.4 136.733C721.8 133.667 729 132.6 729 135Z" fill="currentcolor"/>
<path d="M725.4 157.667C725.8 159.267 726.866 160.067 727.933 159.667C728.866 159.267 732.6 161.667 736.066 164.867C742.2 170.467 742.6 170.6 744.733 168.467C745.933 167.133 748.2 165.667 749.667 165.133C751.4 164.6 750.733 165.8 747.4 169C742.6 173.667 739.667 174.867 739.667 172.333C739.667 171.533 738.866 171 737.8 171C736.733 171 734.2 169.667 732.066 167.933C722.333 160.067 721.933 159.933 715 165C708.733 169.4 703.133 170.2 706.466 166.067C707.4 165.133 708.866 164.467 709.933 164.867C710.866 165.267 711.666 165 711.666 164.333C711.666 163.133 722.2 155.133 723.8 155C724.333 155 725 156.2 725.4 157.667Z" fill="currentcolor"/>
<path d="M828.067 389.933C825.533 392.733 813 415.133 813 416.867C813 417.267 819.133 417.667 826.733 417.8C837.133 417.933 839.4 418.2 836.333 419.133C834.2 419.8 827.666 420.333 821.933 420.2C816.2 420.067 811.4 420.2 811.266 420.467C809.266 423 806.333 434.2 807 436.333C808.066 439.8 805.533 439.8 803.667 436.467C802.733 434.6 802.866 432.867 804.333 430.067C805.134 428.564 807.065 424.503 809.163 420.088L809.166 420.081L809.172 420.069L809.175 420.062L809.185 420.042L809.189 420.033L809.192 420.027C809.877 418.584 810.58 417.106 811.266 415.667C818.333 400.333 826.6 387 828.866 387C830.333 387 830.2 387.667 828.067 389.933Z" fill="currentcolor"/>
<path d="M832.333 392.733C832.333 393.933 833.133 395.667 834.067 396.6C834.867 397.4 835.667 398.733 835.667 399.533C835.667 400.2 834.2 398.867 832.333 396.333C828.733 391.4 828.066 389.133 830.733 390.067C831.533 390.333 832.333 391.533 832.333 392.733Z" fill="currentcolor"/>
<path d="M828.333 439.133C827.4 440.467 823.667 439.267 823.667 437.667C823.667 437 824.866 436.867 826.333 437.267C827.8 437.667 828.6 438.467 828.333 439.133Z" fill="currentcolor"/>
<path d="M821.4 439.133C820.333 440.2 819.266 440.2 817.4 439.133C815.266 437.933 815.533 437.8 819 437.667C821.8 437.667 822.466 438.067 821.4 439.133Z" fill="currentcolor"/>
<path d="M812.2 439C809.266 440.2 808.333 439.8 809.533 437.8C810.067 437 811.4 436.867 812.6 437.267C814.6 438.067 814.466 438.2 812.2 439Z" fill="currentcolor"/>
<path fill-rule="evenodd" clip-rule="evenodd" d="M738.066 682.333C740.733 688.733 741 689 746.6 689.4C759 690.067 759.266 690.467 751.8 696.467C748.066 699.4 745 702.067 745 702.333C745 702.6 745.8 706.333 746.866 710.6C747.738 714.087 748.699 718.197 749.312 720.82L749.315 720.831C749.451 721.413 749.57 721.922 749.667 722.333L750.6 726.333L746.733 722.867C744.733 721 740.733 717.933 738.066 715.933C733.133 712.333 733 712.333 729.4 714.6C727.266 715.933 723.4 718.733 720.733 720.867C717.933 723 715.4 724.467 715.133 724.2C714.866 723.933 716.333 718.867 718.2 712.867L721.8 702.2L719 700.067C717.533 698.867 714.066 696.467 711.266 694.6C708.466 692.733 706.733 690.867 707.4 690.467C708.066 690.067 712.733 689.667 717.933 689.4L727.4 689.133L730.6 680.067C732.733 673.533 733.933 671.533 734.466 673.267C735 674.6 736.6 678.6 738.066 682.333ZM733.666 689.667C729.4 689.667 729.133 688.733 731.533 683.8C733.8 679 734.333 679 736.6 684.6C738.333 688.6 737.8 689.667 733.666 689.667ZM742.866 696.067C741.266 693.267 741.533 692.867 744.733 692.2C752.866 690.2 753.933 691.667 748.066 696.333L744.466 699.133L742.866 696.067ZM723.666 699.267C723.666 701.133 721.8 700.333 717.266 696.467L712.866 692.733L719 692.867C724.466 693 725 693.267 724.466 695.667C724.066 697.133 723.666 698.733 723.666 699.267ZM728.6 704.6C725.266 701.133 725.133 700.467 726.466 696.6C727.8 692.733 728.466 692.333 733.666 692.333C738.866 692.333 739.533 692.733 740.866 696.6C741.666 698.867 742.2 700.867 742.066 701C741.944 701.061 741.402 701.458 740.593 702.051C739.638 702.75 738.311 703.722 736.866 704.733L732.066 708.333L728.6 704.6ZM735.666 710.467L738.6 707.4C740.2 705.667 741.933 704.733 742.466 705.267C743.8 706.733 747.533 720.333 746.6 720.333C746.2 720.333 743.533 718.067 740.733 715.4L735.666 710.467ZM720.866 713.267C721.533 711.667 722.466 709.267 722.866 707.933C723.533 705.933 724.066 705.8 726.333 707.267C729.8 709.533 729.666 709.933 725 713.4C720.066 717.133 719.4 717.133 720.866 713.267Z" fill="currentcolor"/>
<path d="M438.333 787.4C445.133 790.733 452.2 799.4 454.333 806.733C456.066 813.267 456.066 823.133 454.333 820.333C453.666 819.267 453 816.733 453 814.867C453 807.8 448.866 799.267 442.866 793.667C434.733 786.2 431.266 785 424.466 787.667C407.933 794.2 399.666 814.6 408.333 827.4C414.733 836.733 429.666 840.867 439.266 835.8C443.933 833.4 450.733 826.333 451.133 823.533C451.666 820.067 452.866 819.8 452.6 823.133C452.466 824.867 451 828.2 449.533 830.333C446.6 834.333 437.133 840.333 433.533 840.333C430.866 840.333 431.133 841.667 434.6 845.533C436.466 847.667 435.8 847.4 433 844.733L428.333 840.467L423.266 845.133C420.6 847.667 418.333 849.267 418.333 848.6C418.333 847.933 419.8 846.067 421.666 844.333L425 841.133L418.066 837.8C406.466 832.067 399.8 819.533 402.6 808.733C404.6 800.333 412.333 791.267 420.066 787.533C428.6 783.667 430.733 783.533 438.333 787.4Z" fill="currentcolor"/>
<path d="M449.666 813.667C449.133 814.467 440.6 815 428.2 815C415.4 815 407.666 814.467 407.666 813.667C407.666 812.867 415.666 812.333 429.133 812.333C443 812.333 450.2 812.733 449.666 813.667Z" fill="currentcolor"/>
<path d="M140.466 694.067C144.6 697.8 145.4 699.667 145.933 705.133C146.6 712.2 143.666 720.467 139.133 724.2C135.933 726.867 136.6 724.6 140.333 720.2C146.6 712.6 146.333 702.867 139.666 696.2C129.933 686.467 116.6 695.8 120.733 709.4C121.666 712.067 121.666 713.533 120.866 712.733C118.6 710.467 117.4 703.8 118.6 699.4C121.266 689.267 132.333 686.6 140.466 694.067Z" fill="currentcolor"/>
<path d="M103.666 717.133C103.666 718.2 103.133 718.733 102.333 718.333C101.666 717.933 101 717 101 716.2C101 715.533 101.666 715 102.333 715C103.133 715 103.666 715.933 103.666 717.133Z" fill="currentcolor"/>
<path d="M106.6 682.067C102.733 686.067 99.7998 693.533 99.5331 700.067C99.2665 703 98.7331 705.267 98.0665 704.867C96.3331 703.8 96.8665 697 99.1331 691.533C101.533 685.667 107.666 677.267 108.733 678.333C109.133 678.733 108.2 680.333 106.6 682.067Z" fill="currentcolor"/>
<path d="M29.9331 409.667C29.7998 413.4 29.9331 416.333 30.3331 416.333C30.7331 416.333 34.5998 412.733 38.9998 408.333C43.2665 403.933 47.1331 400.6 47.3998 400.867C47.6665 401.133 46.9998 402.467 45.7998 403.933C45.5705 404.22 45.2488 404.617 44.8598 405.098L44.8559 405.103L44.8544 405.105C43.4334 406.861 41.1194 409.72 39.1331 412.333C34.4665 418.2 34.4665 418.333 37.3998 419.267C38.9998 419.667 43.6665 420.067 47.5331 420.2C53.3998 420.333 54.4665 420.6 53.1331 421.933C52.1998 423 48.0664 423.667 42.1998 423.533L32.8664 423.4L35.9331 426.867C37.5331 428.733 40.7331 432.333 42.8664 434.6C49.3998 441.8 46.1998 440.733 37.7998 432.867C33.3998 428.867 29.7998 425.667 29.7998 425.667C29.6665 425.667 29.5331 429.8 29.5331 434.867C29.2665 446.6 26.4664 452.733 26.3331 441.533C26.3331 437.4 25.9331 432.2 25.5331 429.933L24.7331 425.933L21.2665 428.733C20.0229 429.799 17.8325 431.694 15.6415 433.589C14.5436 434.538 13.4456 435.488 12.4664 436.333C8.46644 439.8 7.66646 440.2 9.66646 437.533C15.3998 430.2 19.2665 426.067 21.6665 424.6C23.9331 423.267 23.3998 423 17.6665 422.867C9.66645 422.467 3.79977 422.067 0.999768 421.667C-2.60023 421.133 6.73312 419.267 14.0664 419.133C17.7998 419.133 20.9998 418.467 20.9998 417.933C20.9998 417.267 19.3998 415.4 17.5331 413.533C15.6665 411.8 12.7331 408.467 11.2665 406.333C9.26646 403.533 10.9998 404.6 17.1331 409.933C24.5998 416.467 25.7998 417.133 25.7998 414.6C25.7998 413 25.9331 406.867 26.1998 401L26.5998 390.333L28.3331 396.733C29.2664 400.2 29.9331 406.067 29.9331 409.667Z" fill="currentcolor"/>
<path d="M742.333 177C742.333 178.067 741.8 179 741 179C740.333 179 739.667 178.067 739.667 177C739.667 175.933 740.333 175 741 175C741.8 175 742.333 175.933 742.333 177Z" fill="currentcolor"/>
<path d="M113.266 725.8C117 728.067 117.133 728.333 114.333 727.667C112.466 727.133 110.066 725.933 109 724.867C106.2 722.2 108.333 722.6 113.266 725.8Z" fill="currentcolor"/>
<path d="M126.333 728.867C126.333 729.267 125.8 729.933 125 730.333C124.333 730.733 123.666 730.467 123.666 729.8C123.666 729 124.333 728.333 125 728.333C125.8 728.333 126.333 728.6 126.333 728.867Z" fill="currentcolor"/>
<path d="M133.666 727C133.266 727.667 132.066 728.333 131.266 728.333C130.333 728.333 130.466 727.8 131.666 727C134.2 725.4 134.733 725.4 133.666 727Z" fill="currentcolor"/>
<path d="M113 676.333C113 677 112.333 677.667 111.533 677.667C110.866 677.667 110.6 677 111 676.333C111.4 675.533 112.066 675 112.466 675C112.733 675 113 675.533 113 676.333Z" fill="currentcolor"/>
<path d="M118.333 674.2C118.333 674.467 117.4 675.133 116.2 675.533C115.133 675.933 114.6 675.8 115 675C115.8 673.667 118.333 673.133 118.333 674.2Z" fill="currentcolor"/>
</svg>
