<svg width="394" height="368" viewBox="0 0 394 368" fill="none" xmlns="http://www.w3.org/2000/svg" stroke="currentcolor" >
<path d="M156.447 297.355L178.081 319.251L178.228 319.399H222.123L222.27 319.253L244.115 297.357L352.282 188.941L365.84 202.53L305.194 263.314L272.081 296.505L271.935 296.651L201.454 367.291L130.975 296.651L88.8057 254.386L29.3564 194.802L42.2998 181.829L156.447 297.355ZM215.568 49.3125L237.267 71.0605L352.288 186.347L351.344 187.295L350.991 187.647L351.344 188.001L351.576 188.234L243.407 296.651L221.709 318.399H178.645L157.158 296.653L43.0039 181.118L151.228 71.0576L172.61 49.3125H215.568ZM305.049 296.505H273.493L305.049 264.877V296.505ZM129.416 296.505H88.9512V255.947L129.416 296.505ZM393.294 187.647L372.849 208.139L367.252 202.53L381.789 187.961L382.142 187.607L381.789 187.255L367.292 172.725L372.849 167.156L393.294 187.647ZM380.729 187.607L366.547 201.822H366.546L352.989 188.234L353.936 187.286L354.288 186.934L353.936 186.58L353.702 186.346L366.586 173.433L380.729 187.607ZM27.2188 166.71L13.9199 180.039L13.5684 180.393L13.9199 180.745L27.9443 194.802L21.1504 201.61L0.705078 181.119L21.1504 160.628L27.2188 166.71ZM41.5957 181.119L28.6514 194.094H28.6504L14.9795 180.392L27.9248 167.418L41.5957 181.119ZM264.447 71.0605L305.194 111.901L365.88 172.725L352.995 185.638L237.974 70.3545L216.129 48.459L215.982 48.3125H172.19L172.044 48.4619L150.515 70.3564L42.2988 180.409L28.6309 166.71L88.8057 106.398L88.9512 106.253V106.252L124.063 71.0605L194.255 0.708008L264.447 71.0605ZM305.049 71.207V110.339L266.006 71.207H305.049ZM122.505 71.207L88.9512 104.837V71.207H122.505Z"/>
</svg>
