<svg width="613" height="37" viewBox="0 0 613 37" fill="none" xmlns="http://www.w3.org/2000/svg" preserveAspectRatio="none" >
<path d="M63.5 23.5H42.5C48.0742 24.4326 50.7991 25.4788 52.5 31.5C53.1613 26.4726 55.7423 24.8164 63.5 23.5Z" fill="currentcolor"/>
<path d="M288.5 26.5H95.5L101.5 23.5H283.5L288.5 26.5Z" fill="currentcolor"/>
<path d="M550 23.5H571C565.426 24.4326 562.701 25.4788 561 31.5C560.339 26.4726 557.758 24.8164 550 23.5Z" fill="currentcolor"/>
<path d="M325 26.5H518L512 23.5H330L325 26.5Z" fill="currentcolor"/>
<path d="M17.5 13H58.5C69.3482 12.9316 73.1904 10.9479 79 6.5C88.3736 11.0318 93.7432 12.9882 104 13H283.5C297.173 13.9181 302.279 11.6392 306.5 2C310.721 11.6392 316.327 13.9181 330 13H509.5C519.757 12.9882 525.126 11.0318 534.5 6.5C540.31 10.9479 544.152 12.9316 555 13H596C600.513 16.8582 604.677 17.575 612.5 18.5H555C540.396 18.9482 536.943 20.7908 534.5 26.5C530.314 20.4112 526.26 18.4062 509.5 18.5H330C315.116 18.1896 310.897 23.4608 306.5 35.5C302.103 23.4608 298.384 18.1896 283.5 18.5H104C87.2402 18.4062 83.1857 20.4112 79 26.5C76.5574 20.7908 73.1043 18.9482 58.5 18.5H1C8.82311 17.575 12.9874 16.8582 17.5 13Z" fill="currentcolor"/>
<path d="M63.5 23.5H42.5C48.0742 24.4326 50.7991 25.4788 52.5 31.5C53.1613 26.4726 55.7423 24.8164 63.5 23.5Z" stroke="currentcolor"/>
<path d="M288.5 26.5H95.5L101.5 23.5H283.5L288.5 26.5Z" stroke="currentcolor"/>
<path d="M550 23.5H571C565.426 24.4326 562.701 25.4788 561 31.5C560.339 26.4726 557.758 24.8164 550 23.5Z" stroke="currentcolor"/>
<path d="M325 26.5H518L512 23.5H330L325 26.5Z" stroke="currentcolor"/>
<path d="M17.5 13H58.5C69.3482 12.9316 73.1904 10.9479 79 6.5C88.3736 11.0318 93.7432 12.9882 104 13H283.5C297.173 13.9181 302.279 11.6392 306.5 2C310.721 11.6392 316.327 13.9181 330 13H509.5C519.757 12.9882 525.126 11.0318 534.5 6.5C540.31 10.9479 544.152 12.9316 555 13H596C600.513 16.8582 604.677 17.575 612.5 18.5H555C540.396 18.9482 536.943 20.7908 534.5 26.5C530.314 20.4112 526.26 18.4062 509.5 18.5H330C315.116 18.1896 310.897 23.4608 306.5 35.5C302.103 23.4608 298.384 18.1896 283.5 18.5H104C87.2402 18.4062 83.1857 20.4112 79 26.5C76.5574 20.7908 73.1043 18.9482 58.5 18.5H1C8.82311 17.575 12.9874 16.8582 17.5 13Z" stroke="currentcolor"/>
</svg>
