<svg width="474" height="133" viewBox="0 0 474 133" fill="none" xmlns="http://www.w3.org/2000/svg" preserveAspectRatio="none" >
<path d="M219 1H0C15.4456 1.22437 23.3954 2.53658 34.5 10H183.5C208.744 9.96067 220.011 11.9435 230 22.5C198.135 35.7638 193.184 52.917 200.5 85C207.923 62.3235 217.935 51.5604 233.5 49.5C236.234 65.3598 237 90.5 237 90.5C237 90.5 237.766 65.3598 240.5 49.5C256.065 51.5604 266.077 62.3235 273.5 85C280.816 52.917 275.865 35.7638 244 22.5C253.989 11.9435 265.256 9.96067 290.5 10H439.5C450.605 2.53658 458.554 1.22437 474 1H255C245.462 1.70997 241.364 3.49713 237 10C232.636 3.49713 228.538 1.70997 219 1Z" fill="currentcolor"/>
<path d="M230 112.5C232.73 111.26 234.264 106.601 237 95.5C239.736 106.601 241.27 111.26 244 112.5C239.691 114.405 238.583 120.216 237 132C235.417 120.216 234.309 114.405 230 112.5Z" fill="currentcolor"/>
<path d="M219 1H0C15.4456 1.22437 23.3954 2.53658 34.5 10H183.5C208.744 9.96067 220.011 11.9435 230 22.5C198.135 35.7638 193.184 52.917 200.5 85C207.923 62.3235 217.935 51.5604 233.5 49.5C236.234 65.3598 237 90.5 237 90.5C237 90.5 237.766 65.3598 240.5 49.5C256.065 51.5604 266.077 62.3235 273.5 85C280.816 52.917 275.865 35.7638 244 22.5C253.989 11.9435 265.256 9.96067 290.5 10H439.5C450.605 2.53658 458.554 1.22437 474 1H255C245.462 1.70997 241.364 3.49713 237 10C232.636 3.49713 228.538 1.70997 219 1Z" stroke="currentcolor"/>
<path d="M230 112.5C232.73 111.26 234.264 106.601 237 95.5C239.736 106.601 241.27 111.26 244 112.5C239.691 114.405 238.583 120.216 237 132C235.417 120.216 234.309 114.405 230 112.5Z" stroke="currentcolor"/>
</svg>
