<svg width="76" height="87" viewBox="0 0 76 87" fill="none" xmlns="http://www.w3.org/2000/svg">
<path fill-rule="evenodd" clip-rule="evenodd" d="M74.4306 82.7109C76.2431 79.2109 74.4306 75.9609 74.4306 75.9609L61 53.211H46.618C49.9318 53.211 52.618 55.8972 52.618 59.211C52.618 62.5247 49.9318 65.2109 46.618 65.2109C43.3043 65.2109 40.618 62.5247 40.618 59.211C40.618 55.8972 43.3043 53.211 46.618 53.211H16.5L1.80555 75.9609C1.80555 75.9609 -0.00694036 80.7109 1.80555 82.7109C3.61805 84.7109 6.99305 86.2109 6.99305 86.2109H69.2431C69.2431 86.2109 72.6181 86.2109 74.4306 82.7109ZM39.118 84.2109C41.051 84.2109 42.618 82.6439 42.618 80.7109C42.618 78.7779 41.051 77.2109 39.118 77.2109C37.185 77.2109 35.618 78.7779 35.618 80.7109C35.618 82.6439 37.185 84.2109 39.118 84.2109ZM28.618 75.2109C31.9318 75.2109 34.618 72.5246 34.618 69.2109C34.618 65.8972 31.9318 63.211 28.618 63.211C25.3043 63.211 22.618 65.8972 22.618 69.2109C22.618 72.5246 25.3043 75.2109 28.618 75.2109Z" fill="currentcolor"/>
<path d="M28.618 1.21094H48.5C48.5 1.21094 54.5 -0.289057 54.5 4.71094C54.5 9.71094 48.5 8.21094 48.5 8.21094H28.618C28.618 8.21094 22.618 9.71096 22.618 4.71094C22.618 -0.289078 28.618 1.21094 28.618 1.21094Z" fill="currentcolor"/>
<path d="M61 53.211L74.4306 75.9609C74.4306 75.9609 76.2431 79.2109 74.4306 82.7109C72.6181 86.2109 69.2431 86.2109 69.2431 86.2109H6.99305C6.99305 86.2109 3.61805 84.7109 1.80555 82.7109C-0.00694036 80.7109 1.80555 75.9609 1.80555 75.9609L16.5 53.211M61 53.211L50.618 37.211V14M61 53.211C41.9375 53.211 16.5 53.211 16.5 53.211M61 53.211H16.5M61 53.211H46.618M16.5 53.211L25.618 37.211V13.2109H50.618V14M16.5 53.211H46.618M46.618 53.211C43.3043 53.211 40.618 55.8972 40.618 59.211C40.618 62.5247 43.3043 65.2109 46.618 65.2109C49.9318 65.2109 52.618 62.5247 52.618 59.211C52.618 55.8972 49.9318 53.211 46.618 53.211ZM51.118 14H50.618M28.618 1.21094H48.5C48.5 1.21094 54.5 -0.289057 54.5 4.71094C54.5 9.71094 48.5 8.21094 48.5 8.21094H28.618C28.618 8.21094 22.618 9.71096 22.618 4.71094C22.618 -0.289078 28.618 1.21094 28.618 1.21094ZM42.618 80.7109C42.618 82.6439 41.051 84.2109 39.118 84.2109C37.185 84.2109 35.618 82.6439 35.618 80.7109C35.618 78.7779 37.185 77.2109 39.118 77.2109C41.051 77.2109 42.618 78.7779 42.618 80.7109ZM34.618 69.2109C34.618 72.5246 31.9318 75.2109 28.618 75.2109C25.3043 75.2109 22.618 72.5246 22.618 69.2109C22.618 65.8972 25.3043 63.211 28.618 63.211C31.9318 63.211 34.618 65.8972 34.618 69.2109Z" stroke="currentcolor"/>
</svg>
