<svg width="35" height="84" viewBox="0 0 60 84" fill="none" xmlns="http://www.w3.org/2000/svg">
<path d="M29.5 1C21.522 8.94299 16.8165 13.3379 15.5 23C12.7407 33.1747 19.634 38.2034 21.0821 41C22.5302 43.7966 22.7775 47.5875 14.5822 49.5C14.5822 49.5 16.1893 40.7831 13.5 36.5C10.8106 32.2169 9.53024 30.5229 5.99998 28C10.2022 34.7185 10.5 42 8.99998 45.5C7.5 49 -2.00009 54.5 1.9999 68C1.9999 68 8.99999 83 29.5 82.5C50 82 56.5 68 56.5 68C60.5209 58.3305 59.5531 52.3022 50 40C46.6386 34.3158 46.3743 30.6648 50 23C45.4039 26.6523 42.5 31.5 42.5 31.5C40.803 32.971 40.764 38.1534 42.5 40C32.6937 34.5223 30.6464 31.4631 27 26C23.3536 20.5369 29.5 1 29.5 1Z" fill="currentcolor" stroke="currentcolor"/>
</svg>
