<svg width="77" height="83" viewBox="0 0 77 83" fill="none" xmlns="http://www.w3.org/2000/svg">
<path d="M1.50002 44.5V44.4832L1.49889 44.4664L1.48408 44.4674C1.49889 44.4664 1.49889 44.4663 1.49888 44.4663L1.49881 44.4652L1.49848 44.46L1.4971 44.4377C1.49588 44.4175 1.49411 44.3869 1.49196 44.346C1.48765 44.2643 1.48182 44.142 1.47587 43.9817C1.46399 43.6612 1.45166 43.1889 1.45021 42.5867C1.44732 41.3821 1.48792 39.6584 1.66232 37.5889C2.01136 33.447 2.89511 27.9349 5.02874 22.4308C7.16196 16.9278 10.5373 11.4507 15.8599 7.3493C21.1768 3.2523 28.4725 0.50007 38.5 0.5C48.5276 0.49993 55.8233 3.25209 61.1401 7.34906C66.4628 11.4505 69.8381 16.9275 71.9713 22.4306C74.1049 27.9348 74.9887 33.4469 75.3377 37.5888C75.5121 39.6583 75.5527 41.382 75.5498 42.5867C75.5484 43.1889 75.5361 43.6611 75.5242 43.9817C75.5182 44.142 75.5124 44.2643 75.5081 44.346C75.5059 44.3869 75.5042 44.4175 75.5029 44.4377L75.5016 44.46L75.5012 44.4652L75.5012 44.4663C75.5012 44.4663 75.5012 44.4664 75.5171 44.4674L75.5012 44.4664L75.5 44.4832V44.5V81.2767C75.3717 81.1511 75.2305 81.0148 75.0774 80.8696C74.2702 80.104 73.1292 79.0889 71.7963 78.094C70.465 77.1003 68.9306 76.1178 67.3365 75.4259C65.7462 74.7357 64.0612 74.3194 62.4435 74.5032C59.7148 74.8133 58.2126 76.6284 56.8435 78.3053L56.804 78.3537C55.4212 80.0478 54.1586 81.5946 51.9095 82.0083C48.8098 82.5784 46.678 80.5391 44.3215 78.2683L44.2985 78.2461C42.0344 76.0643 39.5377 73.6583 35.886 74.5132C33.4394 75.0859 32.1314 76.8451 30.952 78.4314C30.9239 78.4691 30.8959 78.5068 30.868 78.5443C29.6398 80.1945 28.5211 81.6317 26.4122 82.0078C23.6119 82.5072 21.0281 80.7948 18.6594 78.7777C18.1464 78.3409 17.6519 77.8976 17.1716 77.467C17.1047 77.407 17.038 77.3472 16.9716 77.2877C16.4317 76.8042 15.9079 76.3392 15.4086 75.936C14.9106 75.5339 14.4218 75.1806 13.9492 74.9266C13.4797 74.6741 12.9907 74.5 12.5 74.5C12.033 74.5 11.5037 74.6429 10.9609 74.8572C10.4107 75.0744 9.8094 75.3801 9.18764 75.7388C7.94392 76.4563 6.58201 77.4073 5.32501 78.35C4.06607 79.2942 2.90283 80.2374 2.05492 80.944C1.85078 81.1141 1.6648 81.2706 1.50002 81.4103V44.5ZM21.5 49.5C28.1274 49.5 33.5 44.1274 33.5 37.5C33.5 30.8726 28.1274 25.5 21.5 25.5C14.8725 25.5 9.49996 30.8726 9.49996 37.5C9.49996 44.1274 14.8725 49.5 21.5 49.5ZM53.5 49.5C60.1274 49.5 65.4999 44.1274 65.4999 37.5C65.4999 30.8726 60.1274 25.5 53.5 25.5C46.8725 25.5 41.5 30.8726 41.5 37.5C41.5 44.1274 46.8725 49.5 53.5 49.5Z" fill="currentcolor" stroke="currentcolor"/>
</svg>
