<svg width="79" height="80" viewBox="0 0 79 80" fill="none" xmlns="http://www.w3.org/2000/svg">
<path fill-rule="evenodd" clip-rule="evenodd" d="M6.07902 28.9391C6.60722 22.0101 10.526 -0.00112629 39 4.32256e-08C66.7237 0.0010967 73.5249 20.8661 75.0736 28.3608C75.4197 30.0354 74.8298 31.7134 73.6578 32.9585L67.6533 39.3372C67.5548 39.4418 67.5 39.58 67.5 39.7236V42.1833C67.5 48.941 64.1227 55.2515 58.5 59C58.5 59 57.8639 67.3826 54.5 71C50.4623 75.342 40 75.5015 40 75.5015C40 75.5015 29.9258 75.1917 26 71C22.6233 67.3946 22 59 22 59C16.3773 55.2515 13 48.941 13 42.1833V39.5L7.31394 32.5967C6.46252 31.563 5.97723 30.2744 6.07902 28.9391ZM25.5 32.0015C30.1944 32.0015 34 28.1959 34 23.5015C34 18.807 30.1944 15.0015 25.5 15.0015C20.8056 15.0015 17 18.807 17 23.5015C17 28.1959 20.8056 32.0015 25.5 32.0015ZM39.5 67.0015C44.1944 67.0015 48 60.2857 48 52.0015C48 43.7172 44.1944 37.0015 39.5 37.0015C34.8056 37.0015 31 43.7172 31 52.0015C31 60.2857 34.8056 67.0015 39.5 67.0015ZM53.5 32.0015C58.1944 32.0015 62 28.1959 62 23.5015C62 18.807 58.1944 15.0015 53.5 15.0015C48.8056 15.0015 45 18.807 45 23.5015C45 28.1959 48.8056 32.0015 53.5 32.0015Z" fill="currentcolor"/>
<path d="M79 44.3764V60.8437C79 61.1089 78.8946 61.3633 78.7071 61.5508L72.7929 67.4651C72.6054 67.6526 72.5 67.9069 72.5 68.1722V78.2579C72.5 78.8102 72.0523 79.2579 71.5 79.2579H63.5C62.9477 79.2579 62.5 78.8102 62.5 78.2579V66.1579C62.5 65.9012 62.5988 65.6542 62.7758 65.4683L72.3691 55.3954C72.4556 55.3046 72.5242 55.1983 72.5714 55.0821L77.0735 44C77.4868 42.9827 79 43.2783 79 44.3764Z" fill="currentcolor"/>
<path d="M0 44.1199V60.5873C0 60.8525 0.105357 61.1068 0.292893 61.2944L6.20711 67.2086C6.39464 67.3961 6.5 67.6505 6.5 67.9157V78.0015C6.5 78.5537 6.94772 79.0015 7.5 79.0015H15.5C16.0523 79.0015 16.5 78.5537 16.5 78.0015V65.9015C16.5 65.6447 16.4012 65.3977 16.2241 65.2118L6.63089 55.1389C6.5444 55.0481 6.47577 54.9418 6.42857 54.8256L1.92647 43.7435C1.51319 42.7262 0 43.0219 0 44.1199Z" fill="currentcolor"/>
<path d="M58.2226 58.584L58.0199 58.7192L58.0014 58.9621L58.0014 58.9622L58.0014 58.963L58.0011 58.9668L57.9997 58.9834L57.9939 59.0512C57.9886 59.1114 57.9804 59.201 57.9686 59.3168C57.9451 59.5485 57.9077 59.8848 57.8524 60.3003C57.7417 61.1318 57.5595 62.2771 57.2739 63.5326C56.6966 66.0706 55.7188 68.9551 54.1338 70.6595C52.2345 72.702 48.7561 73.8064 45.6441 74.3875C44.1057 74.6747 42.6899 74.8285 41.6583 74.9103C41.1429 74.9511 40.7244 74.974 40.4356 74.9866C40.2913 74.9929 40.1794 74.9967 40.1041 74.9988C40.0837 74.9994 40.0659 74.9999 40.051 75.0003C40.0384 75.0006 40.0278 75.0008 40.0192 75.001L40.0039 75.0013L39.9896 75.0008C39.9715 75.0001 39.9441 74.999 39.9079 74.9974C39.8355 74.9943 39.7278 74.989 39.5888 74.9808C39.3108 74.9645 38.9078 74.9364 38.4114 74.8898C37.4177 74.7964 36.0535 74.6288 34.5701 74.3323C31.5695 73.7327 28.2112 72.6296 26.3649 70.6582C24.7748 68.9604 23.797 66.0769 23.2213 63.5374C22.9366 62.2813 22.7556 61.135 22.6459 60.3026C22.591 59.8867 22.5541 59.55 22.5309 59.318C22.5193 59.2021 22.5112 59.1124 22.506 59.0521L22.5003 58.9842L22.499 58.9676L22.4987 58.9638L22.4986 58.963L22.4986 58.9629L22.4805 58.7194L22.2773 58.584C16.7937 54.9282 13.5 48.7738 13.5 42.1833V39.5V39.3206L13.3859 39.1821L7.69988 32.2788C6.91719 31.3286 6.48709 30.1641 6.57758 28.9771C6.83861 25.5527 7.93807 18.4246 12.465 12.1637C16.9707 5.93218 24.9143 0.499443 39 0.5C52.7176 0.500543 61.2112 5.65474 66.4754 11.6987C71.7558 17.7613 73.8184 24.7573 74.584 28.462C74.8921 29.953 74.3719 31.4704 73.2937 32.6158L67.2892 38.9945C67.1034 39.1918 67 39.4526 67 39.7236V42.1833C67 48.7738 63.7062 54.9282 58.2226 58.584ZM78.5 44.3764V60.8437C78.5 60.9763 78.4473 61.1035 78.3536 61.1973L72.4393 67.1115C72.158 67.3928 72 67.7743 72 68.1722V78.2579C72 78.5341 71.7761 78.7579 71.5 78.7579H63.5C63.2238 78.7579 63 78.5341 63 78.2579V66.1579C63 66.0296 63.0494 65.9061 63.1379 65.8131L72.7312 55.7402C72.8609 55.604 72.9639 55.4445 73.0347 55.2703L77.5368 44.1882C77.7434 43.6795 78.5 43.8273 78.5 44.3764ZM0.5 60.5873V44.1199C0.5 43.5709 1.2566 43.4231 1.46323 43.9317L5.96533 55.0138C6.03614 55.1881 6.13909 55.3475 6.26883 55.4837L15.8621 65.5566C15.9506 65.6496 16 65.7731 16 65.9015V78.0015C16 78.2776 15.7761 78.5015 15.5 78.5015H7.5C7.22386 78.5015 7 78.2776 7 78.0015V67.9157C7 67.5179 6.84197 67.1363 6.56066 66.855L0.646447 60.9408C0.552677 60.847 0.5 60.7199 0.5 60.5873ZM25.5 32.5015C30.4706 32.5015 34.5 28.472 34.5 23.5015C34.5 18.5309 30.4706 14.5015 25.5 14.5015C20.5294 14.5015 16.5 18.5309 16.5 23.5015C16.5 28.472 20.5294 32.5015 25.5 32.5015ZM39.5 67.5015C42.1062 67.5015 44.3658 65.6422 45.9454 62.8546C47.5335 60.052 48.5 56.2138 48.5 52.0015C48.5 47.7891 47.5335 43.9509 45.9454 41.1484C44.3658 38.3607 42.1062 36.5015 39.5 36.5015C36.8938 36.5015 34.6342 38.3607 33.0546 41.1484C31.4665 43.9509 30.5 47.7891 30.5 52.0015C30.5 56.2138 31.4665 60.052 33.0546 62.8546C34.6342 65.6422 36.8938 67.5015 39.5 67.5015ZM53.5 32.5015C58.4706 32.5015 62.5 28.472 62.5 23.5015C62.5 18.5309 58.4706 14.5015 53.5 14.5015C48.5294 14.5015 44.5 18.5309 44.5 23.5015C44.5 28.472 48.5294 32.5015 53.5 32.5015Z" stroke="currentcolor"/>
</svg>
