<svg width="80" height="75" viewBox="0 0 80 75" fill="none" xmlns="http://www.w3.org/2000/svg">
<path d="M24.5 13.8181C23.9228 18.9885 22.6792 25.6774 20 30.5C17.1769 35.5815 11.4848 37.3158 7.06334 37.8626C11.4848 38.2206 17.1769 39.7378 20 44.8193C22.6792 49.6419 23.9228 56.3308 24.5 61.5012C25.0772 56.3308 26.3208 49.6419 29 44.8193C31.8231 39.7378 37.5152 38.2206 41.9367 37.8626C37.5152 37.3158 31.8231 35.5815 29 30.5C26.3208 25.6774 25.0772 18.9885 24.5 13.8181Z" fill="currentcolor"/>
<path d="M68 4.66474C67.7298 7.08838 67.1477 10.2238 65.8936 12.4844C64.5722 14.8663 61.9078 15.6793 59.8382 15.9356C61.9078 16.1034 64.5722 16.8146 65.8936 19.1966C67.1477 21.4571 67.7298 24.5926 68 27.0162C68.2702 24.5926 68.8523 21.4571 70.1064 19.1966C71.4278 16.8146 74.0922 16.1034 76.1618 15.9356C74.0922 15.6793 71.4278 14.8663 70.1064 12.4844C68.8523 10.2238 68.2702 7.08838 68 4.66474Z" fill="currentcolor"/>
<path d="M53.5 59.0767C53.3649 60.4501 53.0739 62.2268 52.4468 63.5078C51.7861 64.8576 50.4539 65.3183 49.4191 65.4635C50.4539 65.5586 51.7861 65.9616 52.4468 67.3114C53.0739 68.5924 53.3649 70.3691 53.5 71.7425C53.6351 70.3691 53.9261 68.5924 54.5532 67.3114C55.2139 65.9616 56.5461 65.5586 57.5809 65.4635C56.5461 65.3183 55.2139 64.8576 54.5532 63.5078C53.9261 62.2268 53.6351 60.4501 53.5 59.0767Z" fill="currentcolor"/>
<path d="M7.06334 37.8626C11.4848 37.3158 17.1769 35.5815 20 30.5C22.6792 25.6774 23.9228 18.9885 24.5 13.8181M7.06334 37.8626C3.65386 38.2843 1 38 1 38C1 38 3.65386 37.5866 7.06334 37.8626ZM7.06334 37.8626C11.4848 38.2206 17.1769 39.7378 20 44.8193C22.6792 49.6419 23.9228 56.3308 24.5 61.5012M41.9367 37.8626C37.5152 37.3158 31.8231 35.5815 29 30.5C26.3208 25.6774 25.0772 18.9885 24.5 13.8181M41.9367 37.8626C45.3461 38.2843 48 38 48 38C48 38 45.3461 37.5866 41.9367 37.8626ZM41.9367 37.8626C37.5152 38.2206 31.8231 39.7378 29 44.8193C26.3208 49.6419 25.0772 56.3308 24.5 61.5012M24.5 13.8181C24 9.33937 24.5 6 24.5 6C24.5 6 25 9.33937 24.5 13.8181ZM24.5 61.5012C24 65.98 24.5 70 24.5 70C24.5 70 25 65.98 24.5 61.5012ZM59.8382 15.9356C61.9078 15.6793 64.5722 14.8663 65.8936 12.4844C67.1477 10.2238 67.7298 7.08838 68 4.66474M59.8382 15.9356C58.2422 16.1333 57 16 57 16C57 16 58.2422 15.8062 59.8382 15.9356ZM59.8382 15.9356C61.9078 16.1034 64.5722 16.8146 65.8936 19.1966C67.1477 21.4571 67.7298 24.5926 68 27.0162M76.1618 15.9356C74.0922 15.6793 71.4278 14.8663 70.1064 12.4844C68.8523 10.2238 68.2702 7.08838 68 4.66474M76.1618 15.9356C77.7578 16.1333 79 16 79 16C79 16 77.7578 15.8062 76.1618 15.9356ZM76.1618 15.9356C74.0922 16.1034 71.4278 16.8146 70.1064 19.1966C68.8523 21.4571 68.2702 24.5926 68 27.0162M68 4.66474C67.766 2.56533 68 1 68 1C68 1 68.234 2.56533 68 4.66474ZM68 27.0162C67.766 29.1156 68 31 68 31C68 31 68.234 29.1156 68 27.0162ZM49.4191 65.4635C50.4539 65.3183 51.7861 64.8576 52.4468 63.5078C53.0739 62.2268 53.3649 60.4501 53.5 59.0767M49.4191 65.4635C48.6211 65.5755 48 65.5 48 65.5C48 65.5 48.6211 65.3902 49.4191 65.4635ZM49.4191 65.4635C50.4539 65.5586 51.7861 65.9616 52.4468 67.3114C53.0739 68.5924 53.3649 70.3691 53.5 71.7425M57.5809 65.4635C56.5461 65.3183 55.2139 64.8576 54.5532 63.5078C53.9261 62.2268 53.6351 60.4501 53.5 59.0767M57.5809 65.4635C58.3789 65.5755 59 65.5 59 65.5C59 65.5 58.3789 65.3902 57.5809 65.4635ZM57.5809 65.4635C56.5461 65.5586 55.2139 65.9616 54.5532 67.3114C53.9261 68.5924 53.6351 70.3691 53.5 71.7425M53.5 59.0767C53.383 57.887 53.5 57 53.5 57C53.5 57 53.617 57.887 53.5 59.0767ZM53.5 71.7425C53.383 72.9322 53.5 74 53.5 74C53.5 74 53.617 72.9322 53.5 71.7425Z" stroke="currentcolor"/>
</svg>
