<svg width="84" height="84" viewBox="0 0 84 84" fill="none" xmlns="http://www.w3.org/2000/svg">
<path d="M1 20.5V1H20V14L12.5 20.5H1Z" fill="currentcolor"/>
<path d="M82.617 7.35156C82.617 7.35156 82.617 50.424 64.7853 68.1869C46.9537 85.9498 4.617 83.1975 4.617 83.1975C4.617 83.1975 39.0809 77.1938 57.7815 59.0061C76.4821 40.8184 82.617 7.35156 82.617 7.35156Z" fill="currentcolor"/>
<path d="M63.5 7C63.5 7 63.5 38.7376 50.012 51.826C36.5239 64.9145 4.5 62.8865 4.5 62.8865C4.5 62.8865 30.5688 58.4627 44.7142 45.0612C58.8595 31.6598 63.5 7 63.5 7Z" fill="currentcolor"/>
<path d="M46.5 7C46.5 7 46.5 29.6697 36.8983 39.0186C27.2967 48.3675 4.5 46.9189 4.5 46.9189C4.5 46.9189 23.0575 43.7591 33.127 34.1866C43.1966 24.6141 46.5 7 46.5 7Z" fill="currentcolor"/>
<path d="M31.5 7C31.5 7 31.5 21.7353 25.3275 27.8121C19.155 33.8889 4.5 32.9473 4.5 32.9473C4.5 32.9473 16.4298 30.8934 22.9031 24.6713C29.3764 18.4492 31.5 7 31.5 7Z" fill="currentcolor"/>
<path d="M1 20.5V1H20V14L12.5 20.5H1Z" stroke="currentcolor"/>
<path d="M82.617 7.35156C82.617 7.35156 82.617 50.424 64.7853 68.1869C46.9537 85.9498 4.617 83.1975 4.617 83.1975C4.617 83.1975 39.0809 77.1938 57.7815 59.0061C76.4821 40.8184 82.617 7.35156 82.617 7.35156Z" stroke="currentcolor"/>
<path d="M63.5 7C63.5 7 63.5 38.7376 50.012 51.826C36.5239 64.9145 4.5 62.8865 4.5 62.8865C4.5 62.8865 30.5688 58.4627 44.7142 45.0612C58.8595 31.6598 63.5 7 63.5 7Z" stroke="currentcolor"/>
<path d="M46.5 7C46.5 7 46.5 29.6697 36.8983 39.0186C27.2967 48.3675 4.5 46.9189 4.5 46.9189C4.5 46.9189 23.0575 43.7591 33.127 34.1866C43.1966 24.6141 46.5 7 46.5 7Z" stroke="currentcolor"/>
<path d="M31.5 7C31.5 7 31.5 21.7353 25.3275 27.8121C19.155 33.8889 4.5 32.9473 4.5 32.9473C4.5 32.9473 16.4298 30.8934 22.9031 24.6713C29.3764 18.4492 31.5 7 31.5 7Z" stroke="currentcolor"/>
</svg>
