<svg width="43" height="80" viewBox="0 0 43 80" fill="none" xmlns="http://www.w3.org/2000/svg">
<path d="M33.6972 79.5H7.75941L7.75843 79.4999C7.75224 79.4994 7.7441 79.4987 7.73408 79.4978C7.72482 79.497 7.71396 79.4959 7.70154 79.4947C7.64984 79.4894 7.57136 79.4804 7.47004 79.4656C7.26722 79.436 6.97389 79.3834 6.62125 79.2923C5.91419 79.1096 4.97939 78.7748 4.05852 78.1684C2.24599 76.9747 0.417573 74.6863 0.581663 70.206L0.581998 70.1968V70.1877V45V44.978L0.580061 44.956C0.18961 40.5327 1.22927 34.9937 3.65479 30.1343C6.08012 25.2752 9.85832 21.1573 14.8992 19.4743L15.2408 19.3602V19V5.5V5H14.7408H8.24084V0.5H33.2408V5H26.7408H26.2408V5.5V19V19.3597L26.5818 19.474C38.3392 23.418 41.8846 34.6986 41.8504 44.9983V45V70.1509C41.3918 73.2466 40.7899 75.2975 39.6202 76.7149C38.4673 78.1119 36.6958 78.9697 33.6972 79.5ZM13.2409 68.5H16.2409V71.5V72H16.7409H25.2409H25.7409V71.5V68.5H28.7409H28.7766L28.8118 68.4949C30.7399 68.2189 32.1049 67.4095 32.9759 65.8813C33.8201 64.4002 34.1664 62.2983 34.2407 59.5133L34.2408 59.5133V59.5V56.0334L34.2435 56.0136C34.248 55.9781 34.2544 55.9264 34.2619 55.8598C34.2771 55.7265 34.2969 55.5329 34.3164 55.2877C34.3554 54.7975 34.3933 54.0997 34.3893 53.2632C34.3813 51.5937 34.2068 49.3549 33.5323 47.1063C32.8576 44.8572 31.6748 42.5736 29.6336 40.8522C27.5854 39.1248 24.7162 38 20.7409 38C16.7655 38 13.8676 39.1248 11.7746 40.8484C9.68853 42.5664 8.44199 44.8461 7.70342 47.0939C6.96505 49.3411 6.72656 51.5793 6.6709 53.249C6.64302 54.0854 6.66091 54.7832 6.68592 55.2735C6.69843 55.5188 6.71274 55.7123 6.72405 55.8457C6.7297 55.9124 6.7346 55.964 6.73815 55.9995L6.74094 56.0265V59.5V59.5474L6.74985 59.594C6.80479 59.881 6.85677 60.1554 6.90661 60.4186L6.91038 60.4385C7.15092 61.7085 7.3441 62.7284 7.57171 63.5594C7.80189 64.3997 8.07616 65.0826 8.49725 65.6685C9.33947 66.8404 10.6976 67.5169 13.0545 68.464L13.1442 68.5H13.2409ZM20.2409 62H22.2409V67H20.2409V62ZM17.2409 58.5C17.2409 59.8807 16.1216 61 14.7409 61C13.3602 61 12.2409 59.8807 12.2409 58.5C12.2409 57.1193 13.3602 56 14.7409 56C16.1216 56 17.2409 57.1193 17.2409 58.5ZM29.2409 58.5C29.2409 59.8807 28.1216 61 26.7409 61C25.3602 61 24.2409 59.8807 24.2409 58.5C24.2409 57.1193 25.3602 56 26.7409 56C28.1216 56 29.2409 57.1193 29.2409 58.5Z" fill="currentcolor" stroke="currentcolor"/>
</svg>
