<svg width="476" height="382" viewBox="0 0 476 382" fill="none" xmlns="http://www.w3.org/2000/svg">
<path d="M476 0.363037L393.42 78.297L472.414 211.257L476 206.799V0.363037ZM0 1.50004V227.393C4.48 227.975 9.863 228.296 15.295 228.353C27.165 228.478 36.949 227.703 42.445 227.209L95.1 93.974L0 1.50004ZM389.154 106.36L382.114 110.916C381.964 111.013 376.752 114.252 375.221 115.206L364.616 121.626L364.766 121.716C359.852 124.773 358.486 125.633 352.909 129.096C350.079 130.853 350.009 130.894 347.325 132.561C327.035 121.654 305.019 113.271 279.327 106.679C247.015 116.441 212.785 130.567 178.605 143.821C192.795 160.908 208.565 166.472 224.45 166.671C242.87 166.901 261.7 158.891 274.668 149.917L282.068 144.797L289.494 155.527L404.947 238.857L450.059 208.87L389.154 106.36ZM108.477 109.1L63.11 223.887L79.76 236.69L113.022 198.99L116.742 198.758C118.242 198.664 119.722 198.62 121.182 198.628C131.394 198.694 140.524 201.344 147.372 207.388C152.444 211.86 155.816 217.814 157.772 224.708L160.052 224.566C172.047 223.816 182.854 226.291 190.682 233.196C198.509 240.103 202.312 250.519 203.062 262.516L203.132 263.596C209.572 264.812 215.337 267.348 220.025 271.484C227.853 278.39 231.655 288.804 232.405 300.801L232.602 303.921C233.244 304.123 233.877 304.345 234.502 304.579L244.818 290.098L311.576 337.657C318.04 336.063 321.893 333.582 324.036 330.571C326.183 327.559 327.269 323.101 326.66 316.464L248.084 260.194L253.274 252.948L259.944 243.583L347.609 306.032C354.073 304.439 357.929 301.958 360.072 298.947C362.216 295.937 363.302 291.49 362.697 284.865L262.959 214.105L273.373 199.425L373.13 270.198C379.6 268.604 383.457 266.123 385.603 263.11C387.751 260.095 388.836 255.634 388.223 248.985L277.783 169.275C263.128 177.963 244.381 184.923 224.226 184.671C200.639 184.376 175.409 173.105 156.849 144.621C156.115 143.495 155.643 142.218 155.467 140.885C155.291 139.552 155.415 138.197 155.832 136.918C156.249 135.64 156.946 134.471 157.874 133.498C158.801 132.525 159.935 131.772 161.192 131.294C174.206 126.349 187.355 121.124 200.535 115.94L108.479 109.106L108.477 109.1ZM121.379 216.72L73.815 270.63C74.742 277.376 76.855 281.572 79.702 284.084C82.549 286.596 86.977 288.169 93.786 288.248L141.349 234.34C140.422 227.593 138.309 223.395 135.462 220.883C132.615 218.371 128.188 216.799 121.378 216.721L121.379 216.72ZM164.687 242.53L110.974 303.41C111.9 310.157 114.014 314.355 116.86 316.867C119.71 319.377 124.135 320.95 130.945 321.027L184.658 260.149C183.732 253.401 181.618 249.205 178.771 246.692C175.925 244.18 171.498 242.607 164.688 242.528L164.687 242.53ZM194.027 280.816L146.467 334.726C147.394 341.472 149.507 345.669 152.354 348.182C155.202 350.694 159.629 352.265 166.438 352.344L214 298.44C213.073 291.69 210.96 287.493 208.113 284.98C205.266 282.468 200.839 280.897 194.029 280.818L194.027 280.816ZM218.729 319.953L179.935 364.233C180.86 370.993 182.973 375.195 185.823 377.709C188.668 380.219 193.09 381.791 199.89 381.872L238.686 337.592C237.76 330.834 235.646 326.632 232.796 324.116C229.952 321.606 225.53 320.036 218.73 319.954L218.729 319.953ZM254.071 324.743C255.765 329.363 256.744 334.483 257.085 339.935L257.317 343.639L249.04 353.087L275.764 372.124C282.228 370.53 286.08 368.049 288.224 365.038C290.369 362.028 291.457 357.574 290.852 350.945L254.072 324.745L254.071 324.743Z" fill="currentcolor"/>
</svg>
