<svg width="420" height="475" viewBox="0 0 420 475" fill="none" xmlns="http://www.w3.org/2000/svg">
<path d="M0.669998 0.376953C0.669998 216.137 45.102 429.695 209.88 475.007C391.274 436.307 419.326 216.731 419.326 0.376953H0.669998ZM225.482 20.79C226.93 20.808 228.398 20.92 229.857 21.13L229.927 21.14C236.187 22.06 242.037 24.984 245.379 27.91L224.18 156.922L241.787 162.568L301.07 42.25C305.34 41.94 311.48 43.082 317.12 46.113C323.112 49.333 327.86 54.246 330.115 58.771L273.985 175.011L289.203 185.491L365.867 104.245C369.967 105.405 375.207 108.589 379.517 113.44C384.14 118.64 387.177 125.202 388.047 130.322L286.624 239.916L286.759 239.773C272.412 254.637 270.576 278.529 273.907 307.975C277.08 336.022 285.747 370.132 297.681 408.255C272.525 432.858 242.265 448.905 211.961 455.371C183.221 445.196 161.508 435.893 139.321 416.144C159.543 363.366 164.067 314.541 162.478 275.507C168.762 278.497 174.976 280.96 181.168 282.704C196.271 286.957 211.945 286.597 225.621 278.312L215.934 262.324C207.186 267.624 198.144 268.064 186.234 264.711C174.324 261.356 160.244 253.809 144.748 243.978C115.872 225.658 82.065 199.75 43.525 180.671C47.932 172.645 52.66 168.621 57.508 166.711C63.736 164.255 71.694 164.799 81.674 168.271C96.872 173.561 115.167 185.481 133.884 197.079L149.891 187.939L149.137 184.431C148.524 184.051 147.919 183.686 147.307 183.304L116.284 41.877C119.587 37.911 125.564 33.741 132.27 31.559C138.477 29.539 144.693 29.414 148.865 30.446L174.58 147.106L192.94 146.563L212.53 23.556C215.588 21.989 219.61 20.934 224.043 20.8C224.52 20.786 225 20.783 225.483 20.79H225.482Z" fill="currentcolor"/>
</svg>
