<svg width="471" height="451" viewBox="0 0 471 451" fill="none" xmlns="http://www.w3.org/2000/svg">
<path fill-rule="evenodd" clip-rule="evenodd" d="M263.686 82.8816C263.686 37.1072 224.333 0 175.79 0L170.968 0.122104C124.667 2.48314 87.8946 38.6335 87.8946 82.8816C87.8946 128.657 127.247 165.764 175.79 165.764L180.613 165.641C226.914 163.281 263.686 127.131 263.686 82.8816ZM200.903 355.21C200.903 381.089 208.24 405.353 221.061 426.252H0V341.002C0 272.143 56.1134 215.996 126.408 213.233L131.842 213.126H219.738C242.615 213.126 264.131 218.777 282.883 228.719C234.209 252.272 200.903 300.074 200.903 355.21ZM277.776 451L351.581 408.491L425.386 451L405.32 371.674L471 318.621L384.793 312.104L351.581 236.806L318.368 312.104L232.162 318.621L297.842 371.674L277.776 451Z" fill="currentcolor"/>
</svg>
