<svg width="474" height="469" viewBox="0 0 474 469" fill="none" xmlns="http://www.w3.org/2000/svg">
<path d="M473.25 0.125L308.72 1.375C293.257 29.359 274.807 54.045 254.557 77.175C260.569 78.672 266.63 80.17 272.584 81.672L286.274 85.125L277.746 96.379C227.331 162.882 233.114 238.466 250.386 310.073L232.216 314.456C215.378 244.639 208.688 166.264 254.856 96.516C166.786 74.619 71.236 53.082 1.48199 7.136C-0.288012 12.026 0.471987 17.323 3.74399 24.366C6.17099 29.588 10.26 35.409 15.884 41.483C69.046 79.421 146.342 107.429 205.662 116.651L202.792 135.118C140.942 125.502 63.15 97.721 6.75599 57.891C7.36599 63.844 9.36599 70.284 13.143 77.251C20.061 90.009 32.418 103.741 48.843 116.158C49.683 116.793 50.54 117.423 51.4 118.051C93.955 140.728 145.096 156.965 192.137 160.215L190.85 178.859C129.703 174.637 64.52 150.639 15.178 118.114C16.208 123.036 18.431 128.511 22.063 134.494C29.43 146.634 42.141 159.978 58.293 172.169C97.557 190.007 139.897 205.107 186.913 208.642L185.513 227.278C129.41 223.06 80.38 203.536 36.41 182.57C40.11 202.193 53.695 216.97 75.336 229.375C102.154 244.748 140.596 254.799 181.158 260.703L188.615 261.789L189.135 269.306C190.209 284.816 193.703 292.138 198.877 300.978L182.747 310.416C177.817 301.99 173.461 291.966 171.455 277.98C139.151 272.893 108.053 265.364 82.09 253.715C75.65 261.465 69.306 269.455 63.096 277.748C79.611 301.506 93.696 320.784 115.876 343.528L142.971 334.061L152.314 330.811L155.032 340.341C170.098 393.393 214.596 433.905 268.627 454.154C316.632 472.144 371.63 473.787 418.69 454.748C350.017 417.17 304.073 331.04 282.908 254.873L281.783 250.717L284.159 247.153C327.53 182.283 404.85 127.88 473.25 102.97V0.125Z" fill="currentcolor"/>
</svg>
