<svg width="384" height="471" viewBox="0 0 384 471" fill="none" xmlns="http://www.w3.org/2000/svg">
<path d="M159.227 0.776855C157.382 0.776855 155.523 0.826855 153.66 0.933855C138.346 1.80886 122.9 6.23886 114.166 11.7969L114.158 84.9469C117.042 84.8529 119.935 84.7999 122.834 84.8049C146.216 84.8409 169.938 88.0909 191.304 94.3179L191.314 6.81086C184.28 3.29286 172.136 0.779855 159.227 0.776855ZM239.967 9.93686C228.042 10.0869 216.89 12.3009 210 15.5329L209.992 100.793C248.478 116.463 274.806 143.273 268.727 179.557L267.767 185.287L262.205 186.961C244.755 192.214 227.333 196.664 209.98 200.296V225.53C235.542 224.826 261.307 222.843 287.125 219.432L287.145 21.5039C278.861 15.9409 263.637 11.2609 248.303 10.1759C245.511 9.97786 242.719 9.90186 239.967 9.93686ZM75.223 25.2939C74.047 25.2789 72.849 25.2839 71.635 25.3139C67.46 25.4139 63.102 25.7819 58.732 26.4659C43.062 28.9199 27.255 35.0309 18.326 41.8679L18.316 114.823C37.124 99.0129 65.02 89.6799 95.466 86.2829L95.473 28.3169C90.653 26.5649 83.455 25.4009 75.223 25.2939ZM333.617 28.7539C322.813 28.8709 312.895 30.6839 306.574 33.4089L306.554 216.591C331.628 212.571 356.714 207.179 381.676 200.233L383.666 41.7859C375.314 35.8859 360.018 30.7609 344.616 29.2329C340.918 28.8669 337.218 28.7159 333.616 28.7549L333.617 28.7539ZM110.842 102.956C57.122 103.658 9.43501 123.321 12.955 169.556C28.791 165.638 43.795 163.663 57.895 163.456C92.735 162.946 122.108 173.16 145.213 191.069C179.821 187.959 215.065 181.069 250.625 170.755C250.765 129.468 176.527 102.099 110.842 102.956ZM61.965 181.606C60.669 181.603 59.362 181.618 58.045 181.651C40.789 182.087 21.595 185.681 0.479004 192.688C6.269 246.496 26.804 299.098 58.979 336.034C65.205 343.184 71.835 349.746 78.854 355.649C108.157 364.931 148.114 368.566 189.388 367.789C193.165 311.984 180.671 259.432 153.195 225.049C131.93 198.439 102.131 181.659 61.963 181.605L61.965 181.606ZM191.291 203.888C181.933 205.525 172.601 206.904 163.296 208.038C164.836 209.778 166.339 211.558 167.798 213.384C170.944 217.321 173.892 221.446 176.671 225.718C186.587 225.862 196.539 225.843 206.528 225.612H191.29V203.889L191.291 203.888ZM383.108 219.231C317.702 237.057 251.646 244.641 187.258 244.546C204.256 279.69 211.086 322.639 208.271 367.146C250.753 365.066 293.301 358.916 326.458 351.163C353.151 318.383 373.828 274.045 383.108 219.231ZM332.51 368.9C294.176 378.045 244.56 384.956 195.637 386.354C147.967 387.714 101.301 384.126 66.189 371.092L66.179 450.022C93.366 462.59 142.593 470.227 193.497 470.32C244.721 470.414 297.711 463.147 332.497 449.547L332.509 368.9H332.51Z" fill="currentcolor"/>
</svg>
