<svg width="472" height="452" viewBox="0 0 472 452" fill="none" xmlns="http://www.w3.org/2000/svg">
<path d="M37.594 0V242.563L117.594 273.093V249C95.09 245.783 72.529 240.367 55.064 222.156L68.564 209.219C80.714 221.886 97.596 226.482 116.844 229.593L90.656 12.03C73.3 8.725 55.492 5.1 37.594 0ZM434.719 0.0299988C369.541 17.422 296.365 0.132004 243.499 70.844V279.656C263.294 250.506 288.942 238.79 314.219 233.126C348.133 225.523 380.399 225.963 405.719 205.5L417.469 220.03C386.213 245.293 349.219 244.416 318.311 251.344C289.016 257.91 264.333 268.974 246.061 314.531L434.718 242.564V0.0299988H434.719ZM108.81 6.28L136.217 234.437L136.277 235V451.906L156.217 412.626L176.685 450.781V253.814L148.563 14.5L108.813 6.28H108.81ZM169.28 30.53L194.873 248.312C199.048 250.612 203.131 253.272 207.061 256.375C213.513 261.472 219.473 267.735 224.811 275.345V66.5C209.315 49.025 190.41 38.173 169.28 30.53ZM0.5 31.376V271.189L117.595 314.219V294.313L19.188 258.157V31.376H0.5ZM453.094 31.406V258.156L236.156 337.846L195.376 322.876V361.156C218.586 369.186 253.454 367.969 281.626 358.626V341.063L471.781 271.188V31.407H453.095L453.094 31.406ZM195.374 270.938V302.751L222.938 313.281C215.898 292.434 206.373 279.621 195.5 271.031C195.46 271.001 195.416 270.971 195.375 270.939L195.374 270.938Z" fill="currentcolor"/>
</svg>
