<svg width="157" height="157" viewBox="0 0 157 157" fill="none" xmlns="http://www.w3.org/2000/svg"> 
<path d="M125 78.5C125 104.181 104.181 125 78.5 125C52.8188 125 32 104.181 32 78.5C32 52.8188 52.8188 32 78.5 32C104.181 32 125 52.8188 125 78.5Z" fill="currentcolor"/>
<path d="M78.5 3C120.197 3 154 36.8025 154 78.5C154 120.197 120.197 154 78.5 154C36.8025 154 3 120.197 3 78.5C3 36.8025 36.8025 3 78.5 3ZM122 78.5C122 102.524 102.524 122 78.5 122C54.4756 122 35 102.524 35 78.5C35 54.4756 54.4756 35 78.5 35C102.524 35 122 54.4756 122 78.5ZM128 78.5C128 51.1619 105.838 29 78.5 29C51.1619 29 29 51.1619 29 78.5C29 105.838 51.1619 128 78.5 128C105.838 128 128 105.838 128 78.5Z" stroke="currentcolor" stroke-width="6"/>
</svg>
