<svg width="22" height="22" viewBox="0 0 22 22" fill="none" xmlns="http://www.w3.org/2000/svg" fill="currentcolor">
<path d="M16.92 12.9998L20.42 9.49981C20.791 9.0883 20.9964 8.55389 20.9964 7.99981C20.9964 7.44573 20.791 6.91131 20.42 6.49981L15.42 1.57981C15.0085 1.20877 14.4741 1.00342 13.92 1.00342C13.3659 1.00342 12.8315 1.20877 12.42 1.57981L9 4.99981M5 16.9998H5.01M9 12.9998H9.01M14 4.99981H14.01M17 7.99981H17.01M3 8.99981H11C12.1046 8.99981 13 9.89524 13 10.9998V18.9998C13 20.1044 12.1046 20.9998 11 20.9998H3C1.89543 20.9998 1 20.1044 1 18.9998V10.9998C1 9.89524 1.89543 8.99981 3 8.99981Z" stroke="currentcolor" stroke-width="2" stroke-linecap="round" stroke-linejoin="round"/>
</svg>
