<svg width="411" height="471" viewBox="0 0 411 471" fill="none" xmlns="http://www.w3.org/2000/svg">
<path d="M205.375 0.375023C193.607 0.375023 182.699 6.51202 174.219 17.595C166.952 27.089 161.822 40.135 160.499 54.845C171.639 49.919 182.972 46.935 194.312 45.845V64.25C183.347 65.627 172.304 69.258 161.155 75.28C163.123 87.767 167.858 98.782 174.218 107.094C182.698 118.176 193.605 124.314 205.373 124.314C217.141 124.314 228.08 118.176 236.561 107.094C242.728 99.034 247.344 88.427 249.404 76.406C237.334 69.574 225.21 65.409 212.998 64.062V45.75C225.674 46.837 238.218 50.266 250.342 55.938C249.187 40.78 244.006 27.324 236.562 17.594C228.08 6.51202 217.142 0.374023 205.372 0.374023L205.375 0.375023ZM158.781 117.625C148.339 122.425 140.391 128.807 136.188 136.095L135.813 136L94.188 200.438L43.532 178.468C14.157 162.35 -18.042 202.468 12.908 220.156L107.378 264.219L145.408 214.155C164.108 247.858 162.178 281.585 134.438 315.311C126.094 314.669 118.068 314.353 110.471 314.405C70.159 314.683 41.529 324.659 36.564 343.185L36.594 343.187C32.154 359.767 47.586 379.857 75.72 398.467C131.395 427.764 171.1 436.935 232.688 440.811H234.25L234.688 440.936C235.112 440.962 235.511 441.006 235.938 441.03L235.906 441.344L327.969 470.064L305.779 416.344L125.595 356.5L131.47 338.78L203.28 362.625L275.125 338.781L281 356.5L232.906 372.47L327.344 403.844C360.838 383.798 379.872 361.376 375 343.188C369.05 320.978 329.075 311.081 275.75 315.406C249.358 282.191 249.554 248.996 266.22 215.781L303 264.22L397.47 220.156C428.42 202.469 396.22 162.35 366.844 178.469L316.156 200.437L274.562 136H274.5C270.283 128.754 262.365 122.404 251.97 117.625C251.77 117.895 251.578 118.172 251.375 118.438C240.107 133.163 223.742 143 205.375 143C187.008 143 170.643 133.163 159.375 118.437C159.172 118.172 158.981 117.894 158.781 117.625ZM95.095 428.625L78.375 469.125L148.251 447.345C130.627 442.771 113.321 436.711 95.095 428.625Z" fill="currentcolor"/>
</svg>
