<svg version="1.0" xmlns="http://www.w3.org/2000/svg"
 width="1024.000000pt" height="1024.000000pt" viewBox="0 0 1024.000000 1024.000000"
 preserveAspectRatio="xMidYMid meet">
<g transform="translate(0.000000,1024.000000) scale(0.100000,-0.100000)"
fill="currentcolor" stroke="none">
<path d="M5057 9758 c-21 -24 -71 -88 -110 -143 -94 -132 -144 -184 -318 -330
-80 -68 -169 -149 -198 -181 -161 -179 -285 -445 -366 -779 -42 -170 -55 -251
-100 -608 -43 -347 -67 -455 -161 -733 -57 -170 -74 -234 -74 -277 0 -86 -9
-99 -106 -156 -94 -54 -180 -90 -469 -196 -331 -123 -465 -202 -575 -343 -74
-95 -128 -199 -263 -507 -211 -482 -341 -774 -571 -1272 -350 -761 -370 -817
-371 -1048 0 -137 1 -142 31 -206 55 -116 145 -194 256 -223 31 -8 105 -18
165 -21 253 -15 345 -69 519 -301 85 -115 127 -154 204 -195 l45 -24 811 -3
811 -2 143 -248 c668 -1155 647 -1120 692 -1143 63 -32 138 -19 185 32 11 13
106 173 211 354 104 182 276 482 383 667 l193 338 801 2 800 3 55 27 c81 40
120 76 196 183 120 170 248 268 384 293 30 6 98 14 150 17 181 12 267 42 341
120 91 95 122 181 120 335 -2 203 -56 357 -366 1025 -84 181 -197 427 -250
545 -54 118 -122 269 -152 335 -30 66 -106 237 -168 380 -62 144 -132 299
-155 345 -85 170 -174 269 -323 358 -114 69 -133 78 -392 182 -326 131 -533
231 -539 262 -3 12 -10 53 -16 90 -5 36 -32 131 -59 210 -109 318 -128 403
-172 753 -73 584 -132 837 -254 1090 -108 224 -207 346 -430 530 -121 99 -239
222 -298 310 -74 110 -153 195 -180 195 -11 0 -38 -19 -60 -42z m194 -1118
c217 -67 441 -334 554 -660 54 -158 82 -272 125 -520 21 -124 55 -280 75 -348
65 -224 67 -333 8 -450 -43 -84 -116 -143 -270 -218 -260 -125 -342 -192 -460
-379 -94 -148 -139 -205 -163 -205 -24 0 -71 58 -156 195 -45 72 -96 138 -149
191 -75 75 -91 86 -272 178 -165 83 -199 104 -241 151 -132 144 -142 267 -48
605 14 52 42 190 61 306 78 468 194 755 392 965 95 100 229 184 323 202 63 11
161 6 221 -13z m-1636 -2631 c55 -17 81 -19 137 -14 85 9 108 -6 108 -67 0
-82 -47 -123 -172 -153 -117 -28 -198 -14 -246 43 l-24 27 5 -28 c4 -24 -1
-32 -32 -52 -78 -52 -141 -65 -313 -65 -87 0 -158 2 -158 3 0 14 42 122 64
165 33 65 68 87 160 103 39 6 118 22 176 34 135 30 210 31 295 4z m1004 -146
c6 -21 17 -70 26 -110 23 -100 47 -132 122 -163 34 -14 65 -28 68 -31 3 -4
-22 -16 -55 -29 -84 -31 -114 -69 -135 -167 -26 -123 -40 -168 -50 -166 -5 1
-20 51 -32 110 -12 59 -28 121 -34 136 -15 35 -59 69 -122 92 -26 10 -44 21
-40 25 4 4 31 15 59 24 83 27 108 65 145 219 12 53 26 97 31 97 4 0 12 -17 17
-37z m2277 -155 c18 -10 44 -32 58 -49 31 -36 126 -226 118 -234 -3 -3 -21 -5
-40 -5 -19 0 -89 -9 -155 -20 -66 -12 -121 -19 -124 -16 -2 2 8 10 23 18 30
14 71 64 62 74 -3 3 -23 1 -45 -5 -60 -17 -130 -13 -184 10 -50 22 -58 35 -36
58 18 20 -25 6 -93 -29 -82 -42 -165 -63 -218 -56 -57 8 -108 46 -117 87 -9
42 12 63 89 89 34 11 87 36 117 56 30 19 65 37 79 40 14 3 28 6 32 7 4 1 97 0
205 -3 159 -5 204 -9 229 -22z m-2778 -75 c2 -28 -11 -88 -42 -185 -24 -79
-56 -188 -71 -243 -22 -83 -40 -124 -110 -240 -86 -144 -119 -217 -174 -390
-18 -55 -58 -151 -88 -214 -77 -158 -163 -249 -303 -321 -119 -61 -182 -116
-299 -265 -150 -189 -227 -240 -363 -240 -69 0 -80 3 -120 30 -31 22 -53 50
-78 99 -34 66 -35 73 -35 176 0 104 1 109 37 178 20 39 40 88 44 109 11 62 17
60 31 -12 15 -70 63 -179 70 -158 2 6 0 29 -6 50 -6 21 -18 126 -26 233 -9
107 -22 246 -30 308 -22 171 -20 266 9 327 43 93 197 267 252 285 24 8 63 5
175 -14 188 -33 233 -47 305 -97 92 -65 105 -79 94 -100 -18 -32 -11 -68 19
-101 26 -29 32 -32 57 -23 16 6 34 22 41 35 9 17 13 20 13 8 0 -69 -96 -101
-179 -59 -61 32 -137 97 -151 130 -15 36 -29 39 -54 10 -17 -20 -24 -21 -118
-14 -56 4 -122 13 -147 21 -25 7 -47 14 -49 14 -1 0 2 -9 8 -21 7 -11 29 -28
50 -38 l38 -17 -43 -57 c-44 -59 -69 -82 -120 -111 l-30 -17 45 6 c25 3 56 13
68 21 32 21 35 14 22 -37 -16 -60 -37 -98 -73 -136 -41 -44 -12 -45 37 -3 39
34 71 97 86 167 5 26 22 71 36 98 l27 51 91 -1 91 0 59 -48 c85 -69 131 -91
196 -91 67 -1 125 25 151 68 38 62 20 105 -70 166 -28 19 -51 38 -51 41 0 3
20 2 44 -4 93 -21 172 25 222 131 15 32 28 58 29 60 1 2 20 -9 41 -23 29 -19
48 -25 79 -23 54 4 61 33 11 42 -49 9 -85 43 -96 89 -12 53 5 158 34 216 50
97 180 183 271 178 39 -2 40 -3 43 -44z m1529 -88 c30 -125 57 -163 137 -192
27 -10 49 -22 49 -28 0 -5 -22 -18 -49 -28 -90 -34 -112 -67 -139 -212 -27
-150 -40 -151 -70 -7 -32 155 -57 193 -142 218 -29 8 -53 19 -53 22 0 4 31 22
70 40 82 38 99 63 130 198 21 87 28 109 36 101 3 -2 16 -53 31 -112z m-2250
47 c54 -27 130 -65 170 -85 39 -20 76 -37 81 -37 5 0 13 -7 16 -16 7 -19 -56
-48 -87 -38 -38 11 -68 34 -79 62 -9 22 -12 24 -15 9 -11 -45 32 -77 115 -86
l57 -6 -30 -20 c-23 -16 -46 -20 -115 -20 -93 0 -164 20 -225 61 -33 22 -38
23 -63 10 -15 -7 -57 -19 -94 -26 -59 -12 -79 -11 -167 5 -54 10 -107 15 -117
11 -17 -7 -16 -10 14 -37 26 -23 29 -31 17 -35 -28 -11 -15 -24 25 -24 22 0
40 -3 40 -7 -1 -5 -13 -26 -28 -48 -24 -34 -34 -41 -72 -46 -73 -8 -117 -40
-190 -134 -22 -29 -23 -29 -16 -5 27 103 87 349 101 415 14 64 24 86 50 112
l33 33 240 0 241 0 98 -48z m3773 -242 c10 -5 51 -72 91 -147 40 -76 103 -192
141 -257 37 -66 68 -122 68 -124 0 -3 -22 16 -48 41 -61 56 -96 74 -158 82
-36 4 -59 1 -89 -13 l-39 -18 -49 59 c-39 46 -47 61 -36 68 8 5 19 9 26 9 21
0 73 51 73 71 0 19 -1 19 -37 0 -38 -19 -186 -51 -238 -51 -49 0 -102 21 -116
46 l-13 24 -30 -28 c-74 -70 -201 -117 -293 -110 -32 3 -61 12 -71 21 -15 16
-14 17 21 17 46 0 95 20 121 48 23 27 36 117 15 110 -8 -3 -16 -18 -19 -34
-10 -60 -53 -94 -118 -94 -58 0 -52 13 35 75 39 28 85 66 102 86 45 53 78 64
256 88 88 12 187 26 220 30 86 12 163 13 185 1z m-3913 -14 c7 -6 31 -195 26
-200 -2 -2 -16 2 -31 9 -30 15 -239 65 -271 65 -26 0 -26 0 7 60 26 48 29 50
72 51 25 0 63 7 85 14 36 12 100 13 112 1z m1868 -243 c38 -180 55 -208 153
-243 34 -13 62 -26 62 -30 0 -4 -27 -17 -60 -29 -107 -39 -122 -67 -161 -288
-7 -40 -15 -73 -19 -73 -4 0 -17 52 -29 117 -12 64 -31 133 -42 155 -22 43
-85 93 -130 103 -39 9 -37 20 9 33 93 29 129 77 157 212 23 113 25 120 34 120
5 0 16 -35 26 -77z m1786 -73 l58 0 44 -57 c24 -32 47 -63 50 -70 5 -8 -28
-31 -93 -68 -55 -31 -112 -66 -125 -78 -13 -12 -56 -89 -95 -172 -60 -129 -70
-158 -70 -206 0 -47 4 -59 28 -81 37 -35 66 -42 118 -28 67 19 124 76 169 168
l38 80 93 22 93 21 53 -39 c92 -69 148 -89 214 -76 l38 7 -55 14 c-58 15 -100
39 -164 96 l-40 35 18 30 c28 50 20 52 -51 17 -37 -19 -94 -41 -126 -49 -54
-14 -61 -14 -87 1 -34 20 -39 16 -43 -34 -5 -57 -61 -168 -104 -203 -42 -35
-95 -48 -117 -30 -23 19 -18 27 14 22 62 -9 97 84 52 139 -26 32 -32 23 -18
-28 9 -34 8 -45 -6 -67 -45 -68 -74 0 -34 78 14 28 44 90 67 138 51 109 83
137 252 223 183 93 186 92 369 -56 150 -121 162 -142 205 -354 52 -256 81
-358 111 -384 l28 -25 -1 -142 c-1 -79 2 -141 7 -139 21 14 43 115 44 201 l0
92 25 -18 c14 -10 47 -41 72 -68 60 -64 81 -132 81 -257 -1 -245 -97 -365
-293 -365 -126 0 -219 52 -393 218 -128 122 -161 145 -303 202 -115 47 -208
105 -261 163 -22 23 -85 110 -140 192 -109 161 -184 242 -343 370 -99 80 -174
166 -292 341 -77 113 -89 148 -61 183 17 20 28 24 79 22 120 -2 208 -46 282
-139 47 -60 66 -104 58 -135 -10 -40 -50 -91 -89 -112 -42 -23 -43 -38 -4 -43
39 -5 94 33 118 80 l20 39 49 -44 c109 -98 229 -81 281 41 15 34 19 68 19 155
0 62 3 129 7 151 l6 38 45 -6 c25 -3 71 -6 103 -6z m-3421 -131 c0 -10 -10
-21 -22 -25 -28 -8 -58 26 -58 67 l0 29 40 -26 c22 -15 40 -35 40 -45z m885
-214 c19 -86 48 -128 100 -145 45 -15 44 -24 -3 -38 -63 -19 -80 -50 -103
-184 -6 -38 -14 -68 -18 -68 -4 0 -17 46 -29 101 -23 112 -41 141 -100 160
l-36 12 44 16 c57 21 85 62 101 151 7 39 16 70 20 70 4 0 15 -34 24 -75z
m1380 -317 c13 -82 40 -127 87 -147 l43 -18 -37 -16 c-46 -19 -74 -64 -83
-131 -4 -28 -11 -58 -15 -66 -10 -18 -11 -16 -35 80 -15 66 -56 120 -90 120
-23 0 -18 18 8 25 43 14 65 46 83 121 10 41 21 74 25 74 4 0 10 -19 14 -42z
m-3318 -280 c-25 -51 -51 -114 -56 -140 -7 -29 -9 -153 -6 -327 2 -155 0 -281
-5 -281 -14 0 -68 163 -91 272 -16 78 -20 127 -17 199 6 129 39 202 140 305
39 41 74 72 76 69 3 -3 -15 -47 -41 -97z m1586 -4 c315 -79 447 -130 592 -227
78 -53 204 -175 266 -258 63 -85 153 -272 180 -374 38 -148 38 -424 -2 -400
-5 4 -40 53 -79 111 -192 289 -389 460 -620 539 -127 43 -137 31 -24 -29 56
-29 137 -77 180 -107 98 -67 280 -249 356 -354 67 -96 108 -164 88 -149 -281
213 -411 288 -626 357 -195 63 -315 81 -794 118 -157 12 -289 26 -293 29 -5 4
19 43 53 86 96 123 190 279 311 520 l112 221 61 -19 c34 -10 141 -39 239 -64z
m2352 -330 c76 -19 99 -34 138 -91 202 -290 360 -473 563 -654 73 -65 112
-105 105 -112 -14 -14 -255 19 -386 53 -60 16 -153 40 -205 53 -241 63 -531
91 -702 68 -230 -31 -459 -125 -620 -254 -68 -55 -67 -50 13 48 203 251 410
349 762 362 86 3 155 8 152 11 -2 3 -35 11 -72 18 -191 37 -460 -8 -622 -104
-85 -49 -175 -134 -261 -243 -39 -49 -73 -89 -76 -89 -9 0 6 267 18 330 46
239 297 482 583 565 182 53 484 72 610 39z m-2444 -538 c151 -21 285 -51 392
-86 164 -55 387 -171 497 -260 14 -11 -24 2 -90 30 -259 113 -405 145 -665
144 -193 -1 -354 -20 -576 -69 -153 -34 -295 -55 -374 -55 -57 0 -64 2 -58 18
12 33 102 148 161 204 62 60 91 72 206 88 83 12 377 4 507 -14z m2449 -235
c58 -10 186 -39 285 -64 205 -51 213 -53 373 -72 64 -8 142 -19 172 -26 l55
-12 -35 -10 c-20 -5 -123 -7 -235 -4 -220 5 -318 19 -598 86 -239 57 -297 65
-457 65 -172 -1 -289 -20 -424 -68 -53 -19 -96 -32 -96 -30 0 9 141 74 225
103 147 52 215 61 435 56 135 -3 227 -10 300 -24z m-2080 -14 l85 -11 -104 -8
c-134 -9 -206 -21 -421 -69 -296 -67 -393 -80 -632 -86 -234 -6 -287 0 -203
23 28 8 104 23 170 35 66 11 190 35 275 54 360 78 589 95 830 62z m279 -104
c111 -22 253 -76 335 -127 109 -68 108 -64 35 -146 -35 -38 -69 -70 -75 -70
-7 0 -25 6 -41 13 -21 9 -253 13 -998 17 l-970 5 -3 25 c-4 35 85 173 106 165
8 -3 73 -11 143 -17 206 -18 454 10 761 87 286 72 512 88 707 48z m1577 2 c51
-8 164 -32 251 -54 364 -90 618 -109 839 -65 28 5 34 1 81 -58 27 -35 56 -74
62 -87 29 -54 78 -51 -946 -51 -799 0 -959 -3 -1018 -15 -38 -8 -70 -15 -71
-15 0 0 -26 32 -58 70 -32 39 -56 77 -53 84 8 20 195 113 294 145 48 16 122
34 163 41 41 6 82 13 90 15 48 9 288 3 366 -10z m-1385 -435 c30 -5 93 -30
140 -55 153 -79 257 -80 401 -5 141 73 87 70 1230 68 959 -3 1023 -4 1026 -20
2 -11 -9 -25 -30 -38 -33 -20 -47 -20 -1062 -20 l-1029 0 -113 -56 c-99 -50
-121 -57 -186 -62 -92 -6 -160 13 -273 74 l-82 44 -1032 0 c-684 0 -1039 3
-1051 10 -24 13 -43 47 -35 60 8 14 2023 14 2096 0z m93 -254 c176 -90 350
-86 534 14 l56 30 209 0 c115 0 207 -3 205 -7 -27 -62 -724 -1266 -735 -1270
-8 -3 -23 3 -33 13 -16 17 -730 1248 -730 1259 0 3 92 5 204 5 l203 0 87 -44z"/>
<path d="M3192 4797 c-65 -69 -86 -209 -58 -383 9 -56 16 -121 16 -145 0 -34
2 -40 13 -30 9 9 11 60 9 199 -2 176 -1 192 24 280 15 51 24 95 22 97 -3 3
-14 -5 -26 -18z"/>
<path d="M2981 4759 c-18 -52 -13 -117 19 -239 72 -275 73 -316 15 -435 -18
-38 -32 -72 -29 -74 10 -10 64 55 86 103 20 44 23 66 23 166 -1 108 -3 122
-44 245 -33 98 -44 146 -45 197 -1 38 -4 68 -8 68 -3 0 -11 -14 -17 -31z"/>
<path d="M3137 4037 c-18 -29 -141 -129 -184 -151 -18 -9 -57 -16 -90 -16 -53
-1 -56 -2 -39 -15 30 -23 100 -18 155 9 61 32 155 116 171 156 16 38 8 49 -13
17z"/>
<path d="M7170 4504 c0 -5 23 -45 50 -89 48 -76 50 -82 50 -150 0 -38 -5 -120
-11 -182 -16 -177 13 -285 101 -373 59 -59 113 -83 172 -78 27 3 55 11 61 17
9 10 4 11 -26 6 -56 -11 -116 16 -172 76 -84 90 -90 112 -90 354 0 116 -4 218
-9 228 -5 12 8 6 43 -17 49 -33 117 -52 157 -44 12 2 -6 13 -46 27 -54 20 -78
37 -146 105 -108 108 -134 131 -134 120z"/>
<path d="M7065 4347 c59 -108 76 -169 85 -317 9 -144 32 -230 70 -265 24 -22
25 -12 5 46 -10 26 -19 108 -25 204 -9 169 -14 194 -50 265 -21 44 -96 130
-112 130 -4 0 8 -28 27 -63z"/>
<path d="M7390 3589 c59 -52 203 -96 273 -82 39 7 82 28 125 60 53 39 37 45
-30 10 -56 -29 -70 -32 -147 -31 -70 0 -98 5 -151 28 -93 39 -98 40 -70 15z"/>
<path d="M4220 2750 c-142 -14 -600 -113 -600 -130 0 -10 58 -4 255 26 355 55
375 56 530 51 156 -5 217 -15 323 -49 35 -11 66 -18 68 -15 10 10 -86 59 -159
82 -73 23 -233 46 -304 44 -21 -1 -72 -5 -113 -9z"/>
<path d="M5824 2749 c-140 -11 -287 -57 -359 -113 -26 -20 -20 -20 48 4 208
73 432 77 808 14 81 -13 160 -24 175 -24 l29 1 -35 15 c-19 9 -93 31 -165 49
-197 51 -346 67 -501 54z"/>
<path d="M602 8820 c-45 -28 -72 -76 -72 -131 0 -41 15 -72 131 -275 73 -126
373 -650 667 -1164 295 -514 625 -1092 735 -1283 109 -192 200 -347 202 -345
1 2 16 35 33 74 l30 71 -150 259 c-82 142 -375 653 -650 1134 -404 706 -695
1213 -856 1491 -9 14 -13 33 -9 42 6 16 128 17 1700 17 l1693 0 32 65 32 65
-1743 0 c-1721 0 -1742 0 -1775 -20z"/>
<path d="M6152 8775 l32 -65 1695 -2 c1526 -3 1696 -5 1699 -19 1 -8 -367
-663 -819 -1455 -452 -791 -826 -1448 -831 -1459 -7 -15 -1 -38 22 -89 17 -38
32 -67 34 -65 3 3 623 1085 917 1599 842 1473 802 1402 807 1460 3 45 0 61
-20 90 -13 19 -39 43 -58 52 -33 17 -138 18 -1772 18 l-1738 0 32 -65z"/>
<path d="M2460 8654 c-281 -157 -689 -392 -755 -436 l-80 -53 -5 -525 c-3
-289 -1 -530 3 -537 9 -13 206 -130 492 -293 99 -57 229 -132 288 -167 60 -35
122 -66 138 -70 24 -5 81 25 376 200 192 113 374 220 406 238 32 19 79 48 105
64 l47 30 2 525 c2 289 -1 530 -5 536 -15 23 -277 175 -807 466 -49 27 -101
51 -115 54 -17 3 -47 -8 -90 -32z m160 -146 c129 -144 400 -462 400 -470 0 -4
-214 -8 -475 -8 -261 0 -475 2 -475 5 0 3 77 94 172 203 272 312 299 342 307
342 4 0 36 -32 71 -72z m-246 -21 c-16 -19 -92 -106 -169 -193 -77 -88 -156
-179 -176 -203 l-35 -43 -117 48 c-64 26 -117 50 -117 53 0 10 250 161 440
266 96 53 179 101 184 106 5 5 12 7 14 4 2 -2 -9 -19 -24 -38z m636 -137 c168
-91 330 -189 330 -200 0 -7 -213 -100 -230 -100 -5 0 -68 71 -141 157 -73 86
-161 187 -196 224 -35 36 -63 70 -63 74 0 7 49 -18 300 -155z m-1175 -305 c60
-25 113 -49 117 -53 7 -7 -232 -615 -247 -630 -3 -3 -5 160 -5 361 1 282 3
367 13 367 7 0 61 -21 122 -45z m1564 -337 c0 -211 -3 -376 -6 -368 -3 8 -60
152 -126 320 -65 168 -120 311 -121 319 -1 13 210 110 242 111 9 0 12 -83 11
-382z m-359 250 c0 -7 -30 -62 -66 -123 -36 -60 -147 -249 -246 -420 -99 -170
-181 -311 -182 -312 -2 -2 -92 153 -201 344 -109 191 -220 384 -246 428 -26
44 -45 83 -43 87 3 5 225 8 495 8 384 0 489 -3 489 -12z m-875 -323 c76 -132
178 -309 227 -393 49 -85 87 -156 84 -159 -3 -3 -162 11 -353 31 -398 42 -425
46 -421 55 2 3 65 164 142 356 76 193 143 358 148 368 12 24 1 41 173 -258z
m1021 55 c43 -107 106 -268 141 -358 36 -90 63 -166 60 -168 -3 -3 -69 -11
-148 -19 -79 -8 -216 -23 -304 -34 -88 -11 -198 -23 -244 -27 l-84 -7 36 64
c36 64 373 645 422 728 21 34 29 41 36 30 5 -8 43 -102 85 -209z m-1201 -626
c39 -3 168 -17 288 -30 120 -13 224 -24 232 -24 13 0 15 -27 15 -165 0 -91 -2
-165 -4 -165 -2 0 -55 31 -118 69 -125 76 -420 242 -516 290 -34 17 -62 34
-62 37 0 3 21 3 48 0 26 -3 79 -8 117 -12z m1070 -110 c-121 -70 -276 -160
-344 -200 -67 -41 -125 -74 -127 -74 -2 0 -4 74 -4 165 0 120 3 165 12 165 6
0 131 13 277 30 329 37 328 36 371 38 29 2 -3 -20 -185 -124z"/>
<path d="M2412 8333 c-20 -8 -44 -62 -34 -78 7 -13 12 -11 32 10 26 27 46 32
53 13 6 -18 -17 -59 -63 -113 -22 -25 -40 -50 -40 -56 0 -12 150 -12 169 0 24
15 -6 41 -46 41 l-36 0 42 45 c48 52 52 85 16 120 -23 24 -61 31 -93 18z"/>
<path d="M2589 8321 c-21 -17 -24 -27 -24 -94 0 -70 2 -78 29 -106 38 -40 82
-42 116 -6 20 21 24 36 24 78 -2 112 -80 181 -145 128z m71 -60 c15 -28 15
-100 1 -114 -23 -23 -48 33 -42 93 5 44 23 53 41 21z"/>
<path d="M2490 7814 c-14 -10 -28 -23 -32 -28 -15 -21 -8 -74 14 -101 19 -24
20 -29 6 -39 -47 -35 -45 -100 5 -142 26 -22 38 -25 71 -21 56 8 86 44 86 103
0 29 -6 50 -18 62 -16 16 -16 19 1 53 31 64 2 113 -74 125 -23 4 -42 0 -59
-12z m81 -58 c13 -27 -2 -66 -25 -66 -20 0 -38 48 -26 71 14 26 38 24 51 -5z
m7 -160 c13 -29 -2 -56 -31 -56 -44 0 -61 38 -31 71 19 21 48 14 62 -15z"/>
<path d="M2013 7489 c-86 -42 -119 -113 -76 -161 53 -59 213 30 213 117 0 63
-60 82 -137 44z m70 -46 c19 -33 -70 -101 -96 -74 -10 10 -4 19 27 47 38 33
60 42 69 27z"/>
<path d="M2140 7326 c-19 -13 -63 -33 -97 -46 -35 -12 -63 -26 -63 -31 0 -12
75 -49 100 -49 24 0 25 8 3 32 -15 17 -15 18 3 18 30 0 124 48 124 63 0 13
-19 37 -29 36 -4 0 -22 -11 -41 -23z"/>
<path d="M2952 7478 c-27 -27 -10 -48 42 -55 17 -2 56 -19 87 -38 71 -44 89
-45 89 -6 0 16 5 42 10 57 8 21 8 31 -4 42 -22 22 -46 7 -46 -29 0 -17 -3 -29
-7 -27 -114 58 -156 71 -171 56z"/>
<path d="M2910 7374 c-15 -38 -12 -62 10 -84 35 -35 110 -16 110 28 0 17 11
15 39 -7 31 -24 23 -50 -13 -44 -18 4 -28 0 -32 -12 -15 -39 74 -50 100 -13
32 46 14 75 -80 129 -67 38 -120 40 -134 3z m77 -30 c5 -15 -11 -33 -30 -34
-15 0 -20 32 -6 41 20 13 29 11 36 -7z"/>
<path d="M7660 8683 c-8 -3 -109 -61 -225 -128 -115 -67 -298 -171 -405 -230
-107 -60 -210 -123 -227 -141 l-33 -32 0 -513 c1 -389 4 -518 13 -529 7 -9
111 -75 232 -147 471 -279 660 -386 687 -386 25 0 235 118 528 298 63 39 175
104 247 144 84 47 135 82 140 95 4 12 6 251 4 531 l-2 510 -32 28 c-55 48
-228 153 -553 333 -293 162 -335 181 -374 167z m148 -215 c60 -68 168 -193
240 -278 l131 -155 -476 -3 c-262 -1 -478 0 -481 3 -3 2 22 35 54 72 32 36
118 135 191 220 157 183 227 263 230 263 1 0 51 -55 111 -122z m-288 21 c-12
-16 -52 -63 -89 -102 -36 -40 -112 -126 -167 -192 -55 -66 -108 -126 -116
-132 -12 -11 -36 -4 -131 35 -64 26 -117 49 -117 52 0 6 162 100 300 176 52
28 149 83 214 123 66 39 121 71 123 71 3 0 -5 -14 -17 -31z m580 -102 c91 -50
194 -109 230 -131 140 -88 159 -101 160 -107 0 -5 -108 -51 -221 -94 -13 -5
-43 25 -120 117 -88 106 -174 205 -278 322 l-26 28 45 -22 c25 -13 119 -63
210 -113z m-1085 -357 c44 -17 83 -35 88 -39 4 -4 -20 -75 -54 -157 -34 -82
-92 -228 -130 -324 l-68 -175 -1 371 c0 204 3 373 6 377 6 6 37 -4 159 -53z
m1525 -307 l0 -368 -125 313 c-69 172 -125 316 -125 320 0 6 224 100 243 102
4 0 7 -165 7 -367z m-350 239 c0 -5 -40 -78 -89 -163 -122 -212 -388 -671
-398 -688 -7 -10 -21 6 -53 60 -96 161 -450 784 -450 791 0 4 223 8 495 8 272
0 495 -4 495 -8z m-789 -484 c167 -292 224 -398 211 -398 -9 0 -134 13 -277
29 -143 16 -294 32 -335 36 -122 10 -130 13 -130 43 0 15 11 51 25 79 13 29
72 177 131 330 58 153 111 287 116 297 10 19 11 19 21 0 6 -10 113 -198 238
-416z m899 305 c29 -71 79 -195 110 -278 32 -82 72 -185 89 -228 42 -105 41
-114 -11 -121 -155 -19 -711 -77 -719 -74 -5 2 47 100 116 218 68 118 175 304
237 412 62 108 116 197 119 198 4 0 30 -57 59 -127z m-1165 -718 c97 -7 426
-41 488 -51 l37 -6 0 -159 c0 -87 -3 -159 -6 -159 -4 0 -52 28 -108 63 -55 35
-202 121 -326 192 -124 70 -227 130 -230 132 -3 3 9 3 25 0 17 -3 71 -9 120
-12z m1260 6 c-11 -5 -87 -49 -170 -98 -82 -49 -181 -107 -220 -128 -38 -21
-116 -67 -171 -102 -56 -35 -103 -63 -105 -63 -4 0 1 323 5 327 1 2 124 16
272 33 352 39 334 37 374 38 27 1 31 -1 15 -7z"/>
<path d="M7559 8331 c-28 -29 -39 -74 -20 -86 6 -3 20 8 32 25 25 34 49 39 49
12 0 -22 -48 -99 -78 -126 -43 -37 -29 -47 61 -44 65 2 82 6 82 18 0 10 -12
16 -37 18 -21 2 -38 6 -38 9 0 3 11 21 26 40 57 75 62 127 14 153 -32 17 -60
11 -91 -19z"/>
<path d="M7736 8335 c-22 -22 -39 -93 -32 -134 18 -111 130 -135 165 -36 34
100 -70 233 -133 170z m62 -57 c5 -7 13 -34 17 -59 5 -36 3 -48 -10 -59 -15
-12 -19 -12 -31 5 -21 29 -17 125 6 125 4 0 12 -6 18 -12z"/>
<path d="M7648 7815 c-40 -22 -55 -97 -27 -131 9 -11 8 -19 -7 -35 -13 -14
-19 -36 -19 -66 0 -60 36 -93 101 -93 37 0 51 5 76 30 27 27 30 36 25 71 -3
22 -13 49 -22 59 -16 18 -16 21 4 46 29 37 26 70 -8 105 -33 33 -78 38 -123
14z m80 -70 c1 -11 -4 -29 -12 -40 -12 -16 -16 -17 -30 -6 -16 14 -22 52 -9
65 14 14 48 1 51 -19z m0 -127 c34 -34 -6 -90 -48 -68 -20 10 -28 58 -13 73
11 11 48 8 61 -5z"/>
<path d="M7143 7500 c-136 -78 -92 -215 49 -155 45 18 98 79 98 111 0 31 -42
74 -72 74 -13 0 -47 -14 -75 -30z m83 -42 c8 -13 -58 -78 -80 -78 -32 0 -28
25 9 57 40 35 59 41 71 21z"/>
<path d="M7226 7321 c-49 -25 -89 -50 -88 -56 0 -13 63 -45 89 -45 27 0 29 7
8 30 -13 14 -8 19 51 44 54 24 65 32 62 50 -5 32 -25 28 -122 -23z"/>
<path d="M8120 7485 c-19 -21 -22 -32 -18 -76 4 -41 11 -58 32 -76 15 -13 36
-23 47 -23 32 0 69 44 69 82 1 31 1 32 15 14 20 -26 19 -48 -2 -85 -17 -29
-17 -31 0 -48 17 -17 19 -17 48 15 38 42 39 94 4 143 -56 76 -150 102 -195 54z
m82 -60 c10 -21 9 -29 -5 -43 -31 -31 -75 19 -47 53 19 22 39 18 52 -10z"/>
</g>
</svg>
