<svg width="65" height="65" viewBox="0 0 65 65" fill="none" xmlns="http://www.w3.org/2000/svg">
<path d="M31.5568 0.24189C27.4409 0.613871 22.7963 2.06264 19.2402 4.08895C12.2214 8.08284 7.29685 14.0835 5.65878 20.6421C5.17151 22.5705 5.02637 23.8822 5.02637 26.1728C5.03673 28.5613 5.18188 29.7458 5.74172 31.8113C6.737 35.4528 8.45801 38.5265 11.2365 41.5806C12.7087 43.2056 15.9226 45.4864 18.2553 46.5632C19.1987 46.9939 21.6869 47.9043 21.9461 47.9043C21.9772 47.9043 21.6869 47.7183 21.2826 47.4932C18.0168 45.643 15.2073 42.6966 13.5174 39.3488C12.0866 36.5295 11.4439 33.8963 11.3194 30.431C11.1847 26.3686 12.1177 22.5901 14.2016 18.8311C15.736 16.0608 18.1724 13.085 20.4947 11.137C24.9734 7.35846 30.1883 5.03848 35.3306 4.52945C37.8913 4.27494 41.4889 4.51966 44.1533 5.12658C48.4247 6.09568 53.453 8.49398 56.8742 11.1957C57.2889 11.5188 57.6311 11.7635 57.6311 11.7243C57.6311 11.6558 56.9675 10.7161 56.3766 9.96232C55.0392 8.23946 52.4162 5.99779 49.9073 4.43156C48.518 3.56035 45.864 2.28778 44.3399 1.75918C43.0129 1.2991 40.4418 0.672604 39.0732 0.486614C36.6058 0.134212 33.7651 0.0461113 31.5568 0.24189Z" fill="#C8A45F"/>
<path d="M35.0285 7.83891C33.3489 7.99553 30.9333 8.54371 29.3989 9.10168C27.0351 9.96311 24.3914 11.4706 22.7119 12.9096L22.2246 13.3305L23.759 12.6061C28.611 10.2861 32.8928 9.60092 37.6515 10.3645C42.3583 11.128 46.5675 13.2326 50.2169 16.6294C51.5957 17.9215 52.3629 18.7927 53.4101 20.3002C56.3441 24.5291 57.7955 28.9341 58.0029 34.2005C58.2309 39.839 56.4892 45.7809 53.2649 50.4013C51.969 52.2514 51.0255 53.3575 49.3875 54.9433C45.7588 58.4576 40.938 61.3845 35.3499 63.4695L33.6496 64.1058L34.5205 64.1352C35.6091 64.1743 37.8588 63.9981 39.2273 63.7632C43.4469 63.029 47.1792 61.5607 50.9426 59.1526C52.4977 58.1541 53.607 57.2829 55.0378 55.932C60.4081 50.8613 63.6117 44.3321 64.2752 37.0883C64.4203 35.434 64.3478 32.2917 64.1093 30.6765C63.2592 24.8619 60.5222 19.8108 55.8153 15.3568C50.5072 10.3547 44.0689 7.73123 37.2264 7.78996C36.2207 7.78996 35.2255 7.81933 35.0285 7.83891Z" fill="#C8A45F"/>
<path d="M33.6135 16.4045C33.9764 16.9625 34.8888 18.4015 35.6456 19.6153C41.047 28.2296 42.8406 31.0684 42.9132 31.0684C42.9547 31.0684 43.5767 30.0209 44.3128 28.7386C45.0385 27.466 46.0649 25.6649 46.5937 24.7545C47.2779 23.5602 47.5164 23.0512 47.4438 22.9729C47.3816 22.9044 46.998 22.6499 46.5937 22.4149C46.1893 22.18 45.2148 21.6024 44.4165 21.1424C40.736 18.9496 36.6305 16.8059 34.3704 15.8955C33.6965 15.6312 33.1055 15.406 33.0537 15.406C33.0019 15.406 33.2507 15.8563 33.6135 16.4045Z" fill="#C8A45F"/>
<path d="M30.8827 16.2183C29.0269 17.1874 18.9186 22.8552 18.7112 23.051C18.649 23.1 18.7527 23.1881 18.9704 23.2762C19.4784 23.4719 23.4181 24.7934 27.4095 26.1052C33.7337 28.2 40.2549 30.3634 40.9806 30.6179C41.3746 30.7647 41.7167 30.8528 41.7374 30.8332C41.7685 30.8039 41.5093 30.3536 41.1672 29.825C40.8251 29.2964 39.8609 27.7595 39.0211 26.4184C38.1814 25.0675 36.4707 22.3658 35.237 20.3982C34.0033 18.4306 32.8317 16.5609 32.6348 16.2477C32.4378 15.9247 32.2304 15.6506 32.1786 15.631C32.1164 15.6114 31.5358 15.8855 30.8827 16.2183Z" fill="#C8A45F"/>
<path d="M4.60938 16.8445C2.57735 19.5658 1.1259 23.2563 0.545316 27.2502C0.286128 28.973 0.286128 33.0061 0.534948 34.6408C1.51986 40.9743 4.17394 46.0449 8.73564 50.2836C10.9336 52.3197 13.287 53.8859 16.2106 55.2466C18.3048 56.2255 19.5178 56.666 21.4358 57.1652C24.5876 57.9875 26.8995 58.2811 30.1342 58.2811C31.4197 58.2811 32.4461 58.3105 32.415 58.3399C32.3735 58.3692 31.8552 58.5063 31.2435 58.6335C24.8882 60.0236 19.3105 59.3873 13.4425 56.6072C10.1249 55.041 7.42934 53.1028 4.21541 49.9801C3.54152 49.334 2.99205 48.825 2.99205 48.8446C2.99205 48.9425 4.25688 50.8024 4.83746 51.5659C5.72907 52.7308 7.18052 54.297 8.46609 55.4619C12.4679 59.0936 16.4698 61.1101 21.0108 61.7562C22.3482 61.952 25.3236 61.952 26.744 61.766C30.7147 61.2374 36.0436 59.5145 39.8485 57.5274C46.9295 53.837 51.7711 48.5803 53.741 42.4622C54.7985 39.1535 54.9747 35.8057 54.2593 32.3698C54.0313 31.2734 53.544 29.4233 53.461 29.345C53.4403 29.3352 53.4299 30.3826 53.4299 31.6846C53.4196 34.817 53.1085 36.6769 52.134 39.3395C50.1849 44.6549 46.069 48.9327 40.4602 51.4778C35.7845 53.602 30.0512 53.8859 24.2454 52.2903C16.9467 50.2934 10.4877 45.5261 6.74508 39.3787C5.09665 36.6769 3.99769 33.6326 3.43785 30.2847C3.14756 28.5619 3.17866 24.0883 3.48969 22.2088C3.79034 20.3881 4.35019 18.2443 4.84783 17.0599C5.06555 16.5215 5.23143 16.0908 5.21069 16.0908C5.18996 16.0908 4.9204 16.4334 4.60938 16.8445Z" fill="#C8A45F"/>
<path d="M47.7253 24.2843C45.9835 27.2602 43.6197 31.4009 43.4435 31.7631C43.4331 31.7925 44.1174 32.6245 44.9779 33.6132C45.8384 34.6019 46.9477 35.8842 47.435 36.4618C47.9326 37.0491 48.3473 37.519 48.3577 37.4994C48.4095 37.4505 48.2229 23.7264 48.1711 23.6676C48.14 23.6383 47.9326 23.9221 47.7253 24.2843Z" fill="#C8A45F"/>
<path d="M17.876 24.1465C17.6582 24.959 17.5027 37.4301 17.6997 38.2622C17.7619 38.546 17.793 38.5265 18.498 37.528C18.892 36.9602 20.0428 35.3744 21.038 34.004C22.0437 32.6335 23.0286 31.2631 23.2463 30.9596L23.6299 30.4016L22.1474 28.7081C19.5037 25.6833 18.3529 24.3618 18.1455 24.1269L17.9485 23.892L17.876 24.1465Z" fill="#C8A45F"/>
<path d="M19.4938 24.4808C19.8152 24.8332 25.1959 30.9904 26.9999 33.0755C28.0262 34.2599 29.8198 36.3548 30.981 37.7252C33.4588 40.6619 35.5634 43.1483 35.5945 43.1874C35.6049 43.1972 36.4654 41.7876 37.5125 40.055C38.5596 38.3126 40.0837 35.7772 40.9131 34.4165C41.7321 33.0559 42.3852 31.9204 42.3645 31.9106C42.2816 31.8518 41.0893 31.4309 39.586 30.9317C38.7048 30.638 35.9781 29.7374 33.521 28.9152C24.916 26.0568 19.5975 24.3144 19.4731 24.3144C19.3694 24.3144 19.3798 24.3633 19.4938 24.4808Z" fill="#C8A45F"/>
<path d="M24.0063 31.1863C23.9856 31.2548 23.3635 32.126 22.6378 33.1245C20.4088 36.1786 18.3457 39.0664 18.2835 39.2132C18.2213 39.36 18.5012 39.5362 21.8706 41.3472C25.3126 43.2071 25.5511 43.3344 26.9922 44.0979C27.7386 44.4895 28.8583 45.0768 29.4804 45.4096C31.4502 46.4472 33.0675 47.2402 33.1194 47.1912C33.1919 47.1227 35.1306 43.9706 35.1306 43.9119C35.1306 43.8532 34.7782 43.4323 30.8178 38.7531C26.0487 33.1343 24.3277 31.1373 24.1826 31.0982C24.1204 31.0786 24.0374 31.1178 24.0063 31.1863Z" fill="#C8A45F"/>
<path d="M42.3006 33.5351C41.9585 34.0931 41.0772 35.5516 40.3411 36.7948C39.5947 38.0282 38.2987 40.1916 37.459 41.5914C35.9038 44.1659 34.2969 46.9166 34.2969 46.9949C34.2969 47.083 36.3185 46.016 38.2884 44.8903C42.0829 42.7269 46.064 40.1524 47.8472 38.6939L48.1686 38.4296L47.5776 37.7541C47.2459 37.3919 46.1055 36.0704 45.0272 34.837C43.9594 33.5938 43.047 32.5758 43.0056 32.5562C42.9641 32.5366 42.6427 32.9771 42.3006 33.5351Z" fill="#C8A45F"/>
</svg>
